<svg width="24" height="24" viewBox="0 0 24 24" fill="none" xmlns="http://www.w3.org/2000/svg">
<path d="M18.6603 22.918C17.3681 24.1707 15.9571 23.9729 14.5989 23.3795C13.1616 22.773 11.8429 22.7466 10.3265 23.3795C8.42766 24.1971 7.42549 23.9598 6.29145 22.918C-0.143538 16.2852 0.805887 6.18441 8.11118 5.81519C9.89136 5.9075 11.1309 6.79099 12.1726 6.87011C13.7286 6.55363 15.2187 5.64377 16.8802 5.76244C18.8713 5.92068 20.3746 6.71187 21.3636 8.13601C17.2494 10.6019 18.2252 16.0215 21.9965 17.538C21.2449 19.5159 20.2691 21.4807 18.6472 22.9312L18.6603 22.918ZM12.0407 5.73607C11.8429 2.79549 14.2297 0.369185 16.9725 0.131828C17.3549 3.53393 13.8869 6.06573 12.0407 5.73607Z" fill="black"/>
</svg>
