<svg width="45" height="45" viewBox="0 0 45 45" fill="none" xmlns="http://www.w3.org/2000/svg">
<rect x="0.5" y="0.5" width="44" height="44" rx="22" fill="#FF685A" fill-opacity="0.04"/>
<rect x="0.5" y="0.5" width="44" height="44" rx="22" stroke="#FF685A"/>
<g filter="url(#filter0_i_110_1821)">
<path d="M24.3296 30.9148C24.3355 31.2517 24.2742 31.5863 24.1494 31.8992C24.0246 32.2121 23.8387 32.497 23.6025 32.7373C23.3664 32.9776 23.0848 33.1684 22.7741 33.2987C22.4634 33.429 22.1299 33.4961 21.793 33.4961C21.4561 33.4961 21.1226 33.429 20.8119 33.2987C20.5012 33.1684 20.2196 32.9776 19.9835 32.7373C19.7473 32.497 19.5614 32.2121 19.4366 31.8992C19.3117 31.5863 19.2505 31.2517 19.2563 30.9148L19.2563 27.9959C19.2553 27.747 19.2738 27.4984 19.3119 27.25C19.3258 27.1598 19.3404 27.0688 19.3489 26.9785C19.3767 26.6931 19.3427 26.3198 19.1483 26.0691L19.6127 25.6217C18.4309 25.0163 17.4394 24.0962 16.7476 22.9628C16.0559 21.8295 15.6907 20.527 15.6926 19.1992C15.6926 18.4394 15.8098 17.7066 16.0266 17.0193L16.7949 12L23.0445 12L23.0445 12.0023C26.9037 12.0856 30 14.6018 30 19.1992C30 21.9013 28.7064 24.0766 26.7487 25.3031L26.7541 25.3069C26.6206 25.3995 26.4633 25.4936 26.2943 25.5947L26.2936 25.5954C25.7382 25.9279 25.0594 26.3352 24.7022 27.0001C24.3914 27.5771 24.3312 28.5128 24.3312 28.9463L24.3296 28.9463L24.3296 30.9148Z" fill="url(#paint0_linear_110_1821)"/>
</g>
<path d="M24.3296 30.9148C24.3355 31.2517 24.2742 31.5863 24.1494 31.8992C24.0246 32.2121 23.8387 32.497 23.6025 32.7373C23.3664 32.9776 23.0848 33.1684 22.7741 33.2987C22.4634 33.429 22.1299 33.4961 21.793 33.4961C21.4561 33.4961 21.1226 33.429 20.8119 33.2987C20.5012 33.1684 20.2196 32.9776 19.9835 32.7373C19.7473 32.497 19.5614 32.2121 19.4366 31.8992C19.3117 31.5863 19.2505 31.2517 19.2563 30.9148L19.2563 27.9959C19.2553 27.747 19.2738 27.4984 19.3119 27.25C19.3258 27.1598 19.3404 27.0688 19.3489 26.9785C19.3767 26.6931 19.3427 26.3198 19.1483 26.0691L19.6127 25.6217C18.4309 25.0163 17.4394 24.0962 16.7476 22.9628C16.0559 21.8295 15.6907 20.527 15.6926 19.1992C15.6926 18.4394 15.8098 17.7066 16.0266 17.0193L16.7949 12L23.0445 12L23.0445 12.0023C26.9037 12.0856 30 14.6018 30 19.1992C30 21.9013 28.7064 24.0766 26.7487 25.3031L26.7541 25.3069C26.6206 25.3995 26.4633 25.4936 26.2943 25.5947L26.2936 25.5954C25.7382 25.9279 25.0594 26.3352 24.7022 27.0001C24.3914 27.5771 24.3312 28.5128 24.3312 28.9463L24.3296 28.9463L24.3296 30.9148Z" fill="url(#paint1_radial_110_1821)"/>
<path d="M24.3296 30.9148C24.3355 31.2517 24.2742 31.5863 24.1494 31.8992C24.0246 32.2121 23.8387 32.497 23.6025 32.7373C23.3664 32.9776 23.0848 33.1684 22.7741 33.2987C22.4634 33.429 22.1299 33.4961 21.793 33.4961C21.4561 33.4961 21.1226 33.429 20.8119 33.2987C20.5012 33.1684 20.2196 32.9776 19.9835 32.7373C19.7473 32.497 19.5614 32.2121 19.4366 31.8992C19.3117 31.5863 19.2505 31.2517 19.2563 30.9148L19.2563 27.9959C19.2553 27.747 19.2738 27.4984 19.3119 27.25C19.3258 27.1598 19.3404 27.0688 19.3489 26.9785C19.3767 26.6931 19.3427 26.3198 19.1483 26.0691L19.6127 25.6217C18.4309 25.0163 17.4394 24.0962 16.7476 22.9628C16.0559 21.8295 15.6907 20.527 15.6926 19.1992C15.6926 18.4394 15.8098 17.7066 16.0266 17.0193L16.7949 12L23.0445 12L23.0445 12.0023C26.9037 12.0856 30 14.6018 30 19.1992C30 21.9013 28.7064 24.0766 26.7487 25.3031L26.7541 25.3069C26.6206 25.3995 26.4633 25.4936 26.2943 25.5947L26.2936 25.5954C25.7382 25.9279 25.0594 26.3352 24.7022 27.0001C24.3914 27.5771 24.3312 28.5128 24.3312 28.9463L24.3296 28.9463L24.3296 30.9148Z" fill="url(#paint2_radial_110_1821)"/>
<path d="M24.3296 30.9148C24.3355 31.2517 24.2742 31.5863 24.1494 31.8992C24.0246 32.2121 23.8387 32.497 23.6025 32.7373C23.3664 32.9776 23.0848 33.1684 22.7741 33.2987C22.4634 33.429 22.1299 33.4961 21.793 33.4961C21.4561 33.4961 21.1226 33.429 20.8119 33.2987C20.5012 33.1684 20.2196 32.9776 19.9835 32.7373C19.7473 32.497 19.5614 32.2121 19.4366 31.8992C19.3117 31.5863 19.2505 31.2517 19.2563 30.9148L19.2563 27.9959C19.2553 27.747 19.2738 27.4984 19.3119 27.25C19.3258 27.1598 19.3404 27.0688 19.3489 26.9785C19.3767 26.6931 19.3427 26.3198 19.1483 26.0691L19.6127 25.6217C18.4309 25.0163 17.4394 24.0962 16.7476 22.9628C16.0559 21.8295 15.6907 20.527 15.6926 19.1992C15.6926 18.4394 15.8098 17.7066 16.0266 17.0193L16.7949 12L23.0445 12L23.0445 12.0023C26.9037 12.0856 30 14.6018 30 19.1992C30 21.9013 28.7064 24.0766 26.7487 25.3031L26.7541 25.3069C26.6206 25.3995 26.4633 25.4936 26.2943 25.5947L26.2936 25.5954C25.7382 25.9279 25.0594 26.3352 24.7022 27.0001C24.3914 27.5771 24.3312 28.5128 24.3312 28.9463L24.3296 28.9463L24.3296 30.9148Z" fill="url(#paint3_radial_110_1821)"/>
<path d="M24.3296 30.9148C24.3355 31.2517 24.2742 31.5863 24.1494 31.8992C24.0246 32.2121 23.8387 32.497 23.6025 32.7373C23.3664 32.9776 23.0848 33.1684 22.7741 33.2987C22.4634 33.429 22.1299 33.4961 21.793 33.4961C21.4561 33.4961 21.1226 33.429 20.8119 33.2987C20.5012 33.1684 20.2196 32.9776 19.9835 32.7373C19.7473 32.497 19.5614 32.2121 19.4366 31.8992C19.3117 31.5863 19.2505 31.2517 19.2563 30.9148L19.2563 27.9959C19.2553 27.747 19.2738 27.4984 19.3119 27.25C19.3258 27.1598 19.3404 27.0688 19.3489 26.9785C19.3767 26.6931 19.3427 26.3198 19.1483 26.0691L19.6127 25.6217C18.4309 25.0163 17.4394 24.0962 16.7476 22.9628C16.0559 21.8295 15.6907 20.527 15.6926 19.1992C15.6926 18.4394 15.8098 17.7066 16.0266 17.0193L16.7949 12L23.0445 12L23.0445 12.0023C26.9037 12.0856 30 14.6018 30 19.1992C30 21.9013 28.7064 24.0766 26.7487 25.3031L26.7541 25.3069C26.6206 25.3995 26.4633 25.4936 26.2943 25.5947L26.2936 25.5954C25.7382 25.9279 25.0594 26.3352 24.7022 27.0001C24.3914 27.5771 24.3312 28.5128 24.3312 28.9463L24.3296 28.9463L24.3296 30.9148Z" fill="url(#paint4_radial_110_1821)"/>
<path d="M24.3296 30.9148C24.3355 31.2517 24.2742 31.5863 24.1494 31.8992C24.0246 32.2121 23.8387 32.497 23.6025 32.7373C23.3664 32.9776 23.0848 33.1684 22.7741 33.2987C22.4634 33.429 22.1299 33.4961 21.793 33.4961C21.4561 33.4961 21.1226 33.429 20.8119 33.2987C20.5012 33.1684 20.2196 32.9776 19.9835 32.7373C19.7473 32.497 19.5614 32.2121 19.4366 31.8992C19.3117 31.5863 19.2505 31.2517 19.2563 30.9148L19.2563 27.9959C19.2553 27.747 19.2738 27.4984 19.3119 27.25C19.3258 27.1598 19.3404 27.0688 19.3489 26.9785C19.3767 26.6931 19.3427 26.3198 19.1483 26.0691L19.6127 25.6217C18.4309 25.0163 17.4394 24.0962 16.7476 22.9628C16.0559 21.8295 15.6907 20.527 15.6926 19.1992C15.6926 18.4394 15.8098 17.7066 16.0266 17.0193L16.7949 12L23.0445 12L23.0445 12.0023C26.9037 12.0856 30 14.6018 30 19.1992C30 21.9013 28.7064 24.0766 26.7487 25.3031L26.7541 25.3069C26.6206 25.3995 26.4633 25.4936 26.2943 25.5947L26.2936 25.5954C25.7382 25.9279 25.0594 26.3352 24.7022 27.0001C24.3914 27.5771 24.3312 28.5128 24.3312 28.9463L24.3296 28.9463L24.3296 30.9148Z" fill="url(#paint5_radial_110_1821)"/>
<path d="M24.3296 30.9148C24.3355 31.2517 24.2742 31.5863 24.1494 31.8992C24.0246 32.2121 23.8387 32.497 23.6025 32.7373C23.3664 32.9776 23.0848 33.1684 22.7741 33.2987C22.4634 33.429 22.1299 33.4961 21.793 33.4961C21.4561 33.4961 21.1226 33.429 20.8119 33.2987C20.5012 33.1684 20.2196 32.9776 19.9835 32.7373C19.7473 32.497 19.5614 32.2121 19.4366 31.8992C19.3117 31.5863 19.2505 31.2517 19.2563 30.9148L19.2563 27.9959C19.2553 27.747 19.2738 27.4984 19.3119 27.25C19.3258 27.1598 19.3404 27.0688 19.3489 26.9785C19.3767 26.6931 19.3427 26.3198 19.1483 26.0691L19.6127 25.6217C18.4309 25.0163 17.4394 24.0962 16.7476 22.9628C16.0559 21.8295 15.6907 20.527 15.6926 19.1992C15.6926 18.4394 15.8098 17.7066 16.0266 17.0193L16.7949 12L23.0445 12L23.0445 12.0023C26.9037 12.0856 30 14.6018 30 19.1992C30 21.9013 28.7064 24.0766 26.7487 25.3031L26.7541 25.3069C26.6206 25.3995 26.4633 25.4936 26.2943 25.5947L26.2936 25.5954C25.7382 25.9279 25.0594 26.3352 24.7022 27.0001C24.3914 27.5771 24.3312 28.5128 24.3312 28.9463L24.3296 28.9463L24.3296 30.9148Z" fill="url(#paint6_radial_110_1821)"/>
<path d="M24.3296 30.9148C24.3355 31.2517 24.2742 31.5863 24.1494 31.8992C24.0246 32.2121 23.8387 32.497 23.6025 32.7373C23.3664 32.9776 23.0848 33.1684 22.7741 33.2987C22.4634 33.429 22.1299 33.4961 21.793 33.4961C21.4561 33.4961 21.1226 33.429 20.8119 33.2987C20.5012 33.1684 20.2196 32.9776 19.9835 32.7373C19.7473 32.497 19.5614 32.2121 19.4366 31.8992C19.3117 31.5863 19.2505 31.2517 19.2563 30.9148L19.2563 27.9959C19.2553 27.747 19.2738 27.4984 19.3119 27.25C19.3258 27.1598 19.3404 27.0688 19.3489 26.9785C19.3767 26.6931 19.3427 26.3198 19.1483 26.0691L19.6127 25.6217C18.4309 25.0163 17.4394 24.0962 16.7476 22.9628C16.0559 21.8295 15.6907 20.527 15.6926 19.1992C15.6926 18.4394 15.8098 17.7066 16.0266 17.0193L16.7949 12L23.0445 12L23.0445 12.0023C26.9037 12.0856 30 14.6018 30 19.1992C30 21.9013 28.7064 24.0766 26.7487 25.3031L26.7541 25.3069C26.6206 25.3995 26.4633 25.4936 26.2943 25.5947L26.2936 25.5954C25.7382 25.9279 25.0594 26.3352 24.7022 27.0001C24.3914 27.5771 24.3312 28.5128 24.3312 28.9463L24.3296 28.9463L24.3296 30.9148Z" fill="url(#paint7_linear_110_1821)"/>
<g filter="url(#filter1_f_110_1821)">
<path d="M15.5289 23.5471C15.5287 23.8057 15.5795 24.0617 15.6783 24.3007C15.7772 24.5396 15.9222 24.7567 16.105 24.9395C16.2878 25.1223 16.5049 25.2673 16.7439 25.3662C16.9828 25.465 17.2389 25.5158 17.4974 25.5156L19.6773 25.5156C20.0813 25.5154 20.4755 25.391 20.8063 25.1591C21.1372 24.9272 21.3887 24.5991 21.5266 24.2194C21.6646 23.8396 21.6824 23.4266 21.5776 23.0365C21.4728 22.6463 21.2505 22.2978 20.9408 22.0383C21.1772 21.8602 21.3705 21.6313 21.5064 21.3684C21.6423 21.1055 21.7172 20.8154 21.7257 20.5196C21.7343 20.2238 21.6761 19.9298 21.5556 19.6595C21.4351 19.3892 21.2553 19.1495 21.0295 18.9582C21.2476 18.7735 21.4228 18.5436 21.5429 18.2844C21.6631 18.0251 21.7253 17.7428 21.7253 17.4571L21.7253 17.3599C21.7253 16.82 21.5086 16.3317 21.1568 15.9761C21.4267 15.709 21.6111 15.3678 21.6867 14.9958C21.7622 14.6237 21.7255 14.2376 21.5812 13.8865C21.4368 13.5353 21.1914 13.235 20.8761 13.0236C20.5607 12.8122 20.1896 12.6994 19.81 12.6993L17.6471 12.6993C17.3105 12.6992 16.9799 12.7879 16.6885 12.9563C16.3971 13.1247 16.1552 13.3669 15.9872 13.6586C15.8192 13.9502 15.731 14.281 15.7315 14.6176C15.7321 14.9541 15.8213 15.2846 15.9902 15.5757C15.6503 15.7339 15.3628 15.9858 15.1614 16.3019C14.9599 16.618 14.853 16.9851 14.8532 17.3599L14.8532 17.4571C14.8532 18.0665 15.1309 18.6103 15.5644 18.9713C15.3162 19.1867 15.1258 19.4606 15.0103 19.7682C14.8947 20.0757 14.8578 20.4073 14.9027 20.7328C14.9477 21.0582 15.0732 21.3673 15.2678 21.6321C15.4624 21.8968 15.7199 22.1088 16.0172 22.2489C15.7132 22.596 15.5289 23.0503 15.5289 23.5479" fill="url(#paint8_linear_110_1821)"/>
</g>
<g filter="url(#filter2_i_110_1821)">
<path d="M16.0142 22.1278C14.7745 22.1278 13.7695 23.1328 13.7695 24.3725C13.7695 25.6122 14.7745 26.6172 16.0142 26.6172L18.5004 26.6172C19.7401 26.6172 20.745 25.6122 20.745 24.3725C20.745 23.1328 19.7401 22.1278 18.5004 22.1278L16.0142 22.1278Z" fill="url(#paint9_linear_110_1821)"/>
<path d="M16.0142 22.1278C14.7745 22.1278 13.7695 23.1328 13.7695 24.3725C13.7695 25.6122 14.7745 26.6172 16.0142 26.6172L18.5004 26.6172C19.7401 26.6172 20.745 25.6122 20.745 24.3725C20.745 23.1328 19.7401 22.1278 18.5004 22.1278L16.0142 22.1278Z" fill="url(#paint10_radial_110_1821)"/>
<path d="M16.0142 22.1278C14.7745 22.1278 13.7695 23.1328 13.7695 24.3725C13.7695 25.6122 14.7745 26.6172 16.0142 26.6172L18.5004 26.6172C19.7401 26.6172 20.745 25.6122 20.745 24.3725C20.745 23.1328 19.7401 22.1278 18.5004 22.1278L16.0142 22.1278Z" fill="url(#paint11_radial_110_1821)"/>
</g>
<g filter="url(#filter3_f_110_1821)">
<path d="M15.4853 25.5156L18.2777 25.5156C18.8136 25.5156 19.248 25.0812 19.248 24.5452C19.248 24.0093 18.8136 23.5749 18.2777 23.5749L15.4853 23.5749C14.9494 23.5749 14.5149 24.0093 14.5149 24.5452C14.5149 25.0812 14.9494 25.5156 15.4853 25.5156Z" fill="url(#paint12_linear_110_1821)"/>
</g>
<g filter="url(#filter4_i_110_1821)">
<path d="M16.1865 12.005C14.98 12.005 14.002 12.983 14.002 14.1895C14.002 15.396 14.98 16.374 16.1865 16.374L18.6526 16.374C19.859 16.374 20.8371 15.396 20.8371 14.1895C20.8371 12.983 19.859 12.005 18.6526 12.005L16.1865 12.005Z" fill="url(#paint13_linear_110_1821)"/>
<path d="M16.1865 12.005C14.98 12.005 14.002 12.983 14.002 14.1895C14.002 15.396 14.98 16.374 16.1865 16.374L18.6526 16.374C19.859 16.374 20.8371 15.396 20.8371 14.1895C20.8371 12.983 19.859 12.005 18.6526 12.005L16.1865 12.005Z" fill="url(#paint14_radial_110_1821)"/>
<path d="M16.1865 12.005C14.98 12.005 14.002 12.983 14.002 14.1895C14.002 15.396 14.98 16.374 16.1865 16.374L18.6526 16.374C19.859 16.374 20.8371 15.396 20.8371 14.1895C20.8371 12.983 19.859 12.005 18.6526 12.005L16.1865 12.005Z" fill="url(#paint15_radial_110_1821)"/>
</g>
<g filter="url(#filter5_f_110_1821)">
<path d="M15.0833 15.0752L18.087 15.0752C18.4014 15.0752 18.6562 14.8203 18.6562 14.5059C18.6562 14.1915 18.4014 13.9367 18.087 13.9367L15.0833 13.9367C14.7689 13.9367 14.514 14.1915 14.514 14.5059C14.514 14.8203 14.7689 15.0752 15.0833 15.0752Z" fill="url(#paint16_linear_110_1821)"/>
</g>
<g filter="url(#filter6_i_110_1821)">
<path d="M13.002 17.3171L13.002 17.4282C13.002 18.6679 14.0069 19.6729 15.2466 19.6729L18.5936 19.6729C19.8333 19.6729 20.8383 18.6679 20.8383 17.4282L20.8383 17.3171C20.8383 16.0774 19.8333 15.0724 18.5936 15.0724L15.2466 15.0724C14.0069 15.0724 13.002 16.0774 13.002 17.3171Z" fill="url(#paint17_linear_110_1821)"/>
<path d="M13.002 17.3171L13.002 17.4282C13.002 18.6679 14.0069 19.6729 15.2466 19.6729L18.5936 19.6729C19.8333 19.6729 20.8383 18.6679 20.8383 17.4282L20.8383 17.3171C20.8383 16.0774 19.8333 15.0724 18.5936 15.0724L15.2466 15.0724C14.0069 15.0724 13.002 16.0774 13.002 17.3171Z" fill="url(#paint18_radial_110_1821)"/>
<path d="M13.002 17.3171L13.002 17.4282C13.002 18.6679 14.0069 19.6729 15.2466 19.6729L18.5936 19.6729C19.8333 19.6729 20.8383 18.6679 20.8383 17.4282L20.8383 17.3171C20.8383 16.0774 19.8333 15.0724 18.5936 15.0724L15.2466 15.0724C14.0069 15.0724 13.002 16.0774 13.002 17.3171Z" fill="url(#paint19_radial_110_1821)"/>
</g>
<g filter="url(#filter7_f_110_1821)">
<path d="M14.3388 18.0566L18.3878 18.0566C18.7022 18.0566 18.957 17.8018 18.957 17.4874C18.957 17.173 18.7022 16.9181 18.3878 16.9181L14.3388 16.9181C14.0244 16.9181 13.7696 17.173 13.7696 17.4874C13.7696 17.8018 14.0244 18.0566 14.3388 18.0566Z" fill="url(#paint20_linear_110_1821)"/>
</g>
<g filter="url(#filter8_i_110_1821)">
<path d="M13.0371 20.8488L13.0371 20.8588C13.0371 22.0985 14.0421 23.1035 15.2818 23.1035L18.5941 23.1035C19.8338 23.1035 20.8388 22.0985 20.8388 20.8588L20.8388 20.8488C20.8388 19.6091 19.8338 18.6041 18.5941 18.6041L15.2818 18.6041C14.0421 18.6041 13.0371 19.6091 13.0371 20.8488Z" fill="url(#paint21_linear_110_1821)"/>
<path d="M13.0371 20.8488L13.0371 20.8588C13.0371 22.0985 14.0421 23.1035 15.2818 23.1035L18.5941 23.1035C19.8338 23.1035 20.8388 22.0985 20.8388 20.8588L20.8388 20.8488C20.8388 19.6091 19.8338 18.6041 18.5941 18.6041L15.2818 18.6041C14.0421 18.6041 13.0371 19.6091 13.0371 20.8488Z" fill="url(#paint22_radial_110_1821)"/>
</g>
<g filter="url(#filter9_f_110_1821)">
<path d="M14.7408 22.1582L18.3323 22.1582C18.8683 22.1582 19.3027 21.7237 19.3027 21.1878C19.3027 20.6519 18.8683 20.2174 18.3323 20.2174L14.7408 20.2174C14.2049 20.2174 13.7705 20.6519 13.7705 21.1878C13.7705 21.7237 14.2049 22.1582 14.7408 22.1582Z" fill="url(#paint23_linear_110_1821)"/>
</g>
<path d="M21.7854 33.4512C22.4582 33.451 23.1034 33.1836 23.5791 32.7079C24.0549 32.2321 24.3222 31.5869 24.3224 30.9141L24.3224 28.9456L24.324 28.9456C24.324 28.5121 24.3842 27.5764 24.6942 26.9994C25.0522 26.3345 25.731 25.9272 26.2856 25.5955C26.4553 25.4937 26.6126 25.3988 26.7461 25.3063C25.9786 24.6915 24.4073 23.4627 24.3687 23.492C24.3302 23.5213 22.5606 24.4601 21.6813 24.9267L21.7183 25.459C21.0575 25.4769 20.4297 25.7519 19.9685 26.2256C19.5074 26.6993 19.2493 27.3342 19.2491 27.9953L19.2491 30.9141C19.2493 31.5868 19.5166 32.2319 19.9922 32.7076C20.4677 33.1833 21.1127 33.4508 21.7854 33.4512Z" fill="url(#paint24_radial_110_1821)"/>
<g filter="url(#filter10_f_110_1821)">
<path d="M19.8945 31.5791C19.8945 32.0839 20.3038 32.4932 20.8086 32.4932C21.3134 32.4932 21.7227 32.0839 21.7227 31.5791L21.7227 27.2386C21.7227 26.7338 21.3134 26.3245 20.8086 26.3245C20.3038 26.3245 19.8945 26.7338 19.8945 27.2386L19.8945 31.5791Z" fill="url(#paint25_linear_110_1821)"/>
</g>
<defs>
<filter id="filter0_i_110_1821" x="15.6934" y="12" width="14.6923" height="21.4961" filterUnits="userSpaceOnUse" color-interpolation-filters="sRGB">
<feFlood flood-opacity="0" result="BackgroundImageFix"/>
<feBlend mode="normal" in="SourceGraphic" in2="BackgroundImageFix" result="shape"/>
<feColorMatrix in="SourceAlpha" type="matrix" values="0 0 0 0 0 0 0 0 0 0 0 0 0 0 0 0 0 0 127 0" result="hardAlpha"/>
<feOffset dx="0.385686"/>
<feGaussianBlur stdDeviation="1.15706"/>
<feComposite in2="hardAlpha" operator="arithmetic" k2="-1" k3="1"/>
<feColorMatrix type="matrix" values="0 0 0 0 0.87451 0 0 0 0 0.67451 0 0 0 0 0.568627 0 0 0 1 0"/>
<feBlend mode="normal" in2="shape" result="effect1_innerShadow_110_1821"/>
</filter>
<filter id="filter1_f_110_1821" x="13.3108" y="11.1565" width="9.95853" height="15.9019" filterUnits="userSpaceOnUse" color-interpolation-filters="sRGB">
<feFlood flood-opacity="0" result="BackgroundImageFix"/>
<feBlend mode="normal" in="SourceGraphic" in2="BackgroundImageFix" result="shape"/>
<feGaussianBlur stdDeviation="0.771372" result="effect1_foregroundBlur_110_1821"/>
</filter>
<filter id="filter2_i_110_1821" x="13.7695" y="22.1279" width="7.3603" height="4.48926" filterUnits="userSpaceOnUse" color-interpolation-filters="sRGB">
<feFlood flood-opacity="0" result="BackgroundImageFix"/>
<feBlend mode="normal" in="SourceGraphic" in2="BackgroundImageFix" result="shape"/>
<feColorMatrix in="SourceAlpha" type="matrix" values="0 0 0 0 0 0 0 0 0 0 0 0 0 0 0 0 0 0 127 0" result="hardAlpha"/>
<feOffset dx="0.385686"/>
<feGaussianBlur stdDeviation="0.578529"/>
<feComposite in2="hardAlpha" operator="arithmetic" k2="-1" k3="1"/>
<feColorMatrix type="matrix" values="0 0 0 0 0.898039 0 0 0 0 0.690196 0 0 0 0 0.568627 0 0 0 1 0"/>
<feBlend mode="normal" in2="shape" result="effect1_innerShadow_110_1821"/>
</filter>
<filter id="filter3_f_110_1821" x="13.5514" y="22.611" width="6.66085" height="3.86886" filterUnits="userSpaceOnUse" color-interpolation-filters="sRGB">
<feFlood flood-opacity="0" result="BackgroundImageFix"/>
<feBlend mode="normal" in="SourceGraphic" in2="BackgroundImageFix" result="shape"/>
<feGaussianBlur stdDeviation="0.482107" result="effect1_foregroundBlur_110_1821"/>
</filter>
<filter id="filter4_i_110_1821" x="14.002" y="12.0049" width="7.22162" height="4.75483" filterUnits="userSpaceOnUse" color-interpolation-filters="sRGB">
<feFlood flood-opacity="0" result="BackgroundImageFix"/>
<feBlend mode="normal" in="SourceGraphic" in2="BackgroundImageFix" result="shape"/>
<feColorMatrix in="SourceAlpha" type="matrix" values="0 0 0 0 0 0 0 0 0 0 0 0 0 0 0 0 0 0 127 0" result="hardAlpha"/>
<feOffset dx="0.385686" dy="0.385686"/>
<feGaussianBlur stdDeviation="0.578529"/>
<feComposite in2="hardAlpha" operator="arithmetic" k2="-1" k3="1"/>
<feColorMatrix type="matrix" values="0 0 0 0 0.811765 0 0 0 0 0.568627 0 0 0 0 0.541176 0 0 0 1 0"/>
<feBlend mode="normal" in2="shape" result="effect1_innerShadow_110_1821"/>
</filter>
<filter id="filter5_f_110_1821" x="13.5495" y="12.9723" width="6.07101" height="3.0671" filterUnits="userSpaceOnUse" color-interpolation-filters="sRGB">
<feFlood flood-opacity="0" result="BackgroundImageFix"/>
<feBlend mode="normal" in="SourceGraphic" in2="BackgroundImageFix" result="shape"/>
<feGaussianBlur stdDeviation="0.482107" result="effect1_foregroundBlur_110_1821"/>
</filter>
<filter id="filter6_i_110_1821" x="13.002" y="15.0723" width="8.60731" height="4.98627" filterUnits="userSpaceOnUse" color-interpolation-filters="sRGB">
<feFlood flood-opacity="0" result="BackgroundImageFix"/>
<feBlend mode="normal" in="SourceGraphic" in2="BackgroundImageFix" result="shape"/>
<feColorMatrix in="SourceAlpha" type="matrix" values="0 0 0 0 0 0 0 0 0 0 0 0 0 0 0 0 0 0 127 0" result="hardAlpha"/>
<feOffset dx="0.771372" dy="0.385686"/>
<feGaussianBlur stdDeviation="0.578529"/>
<feComposite in2="hardAlpha" operator="arithmetic" k2="-1" k3="1"/>
<feColorMatrix type="matrix" values="0 0 0 0 0.831373 0 0 0 0 0.576471 0 0 0 0 0.505882 0 0 0 1 0"/>
<feBlend mode="normal" in2="shape" result="effect1_innerShadow_110_1821"/>
</filter>
<filter id="filter7_f_110_1821" x="12.8053" y="15.9538" width="7.11593" height="3.0671" filterUnits="userSpaceOnUse" color-interpolation-filters="sRGB">
<feFlood flood-opacity="0" result="BackgroundImageFix"/>
<feBlend mode="normal" in="SourceGraphic" in2="BackgroundImageFix" result="shape"/>
<feGaussianBlur stdDeviation="0.482107" result="effect1_foregroundBlur_110_1821"/>
</filter>
<filter id="filter8_i_110_1821" x="13.0371" y="18.6045" width="8.18647" height="4.88471" filterUnits="userSpaceOnUse" color-interpolation-filters="sRGB">
<feFlood flood-opacity="0" result="BackgroundImageFix"/>
<feBlend mode="normal" in="SourceGraphic" in2="BackgroundImageFix" result="shape"/>
<feColorMatrix in="SourceAlpha" type="matrix" values="0 0 0 0 0 0 0 0 0 0 0 0 0 0 0 0 0 0 127 0" result="hardAlpha"/>
<feOffset dx="0.385686" dy="0.385686"/>
<feGaussianBlur stdDeviation="0.578529"/>
<feComposite in2="hardAlpha" operator="arithmetic" k2="-1" k3="1"/>
<feColorMatrix type="matrix" values="0 0 0 0 0.862745 0 0 0 0 0.658824 0 0 0 0 0.54902 0 0 0 1 0"/>
<feBlend mode="normal" in2="shape" result="effect1_innerShadow_110_1821"/>
</filter>
<filter id="filter9_f_110_1821" x="12.8053" y="19.2536" width="7.46163" height="3.86886" filterUnits="userSpaceOnUse" color-interpolation-filters="sRGB">
<feFlood flood-opacity="0" result="BackgroundImageFix"/>
<feBlend mode="normal" in="SourceGraphic" in2="BackgroundImageFix" result="shape"/>
<feGaussianBlur stdDeviation="0.482107" result="effect1_foregroundBlur_110_1821"/>
</filter>
<filter id="filter10_f_110_1821" x="18.9303" y="25.36" width="3.75655" height="8.09737" filterUnits="userSpaceOnUse" color-interpolation-filters="sRGB">
<feFlood flood-opacity="0" result="BackgroundImageFix"/>
<feBlend mode="normal" in="SourceGraphic" in2="BackgroundImageFix" result="shape"/>
<feGaussianBlur stdDeviation="0.482107" result="effect1_foregroundBlur_110_1821"/>
</filter>
<linearGradient id="paint0_linear_110_1821" x1="18.576" y1="25.7659" x2="27.3357" y2="9.04951" gradientUnits="userSpaceOnUse">
<stop stop-color="#FFDDBE"/>
<stop offset="1" stop-color="#E7AFA8"/>
</linearGradient>
<radialGradient id="paint1_radial_110_1821" cx="0" cy="0" r="1" gradientUnits="userSpaceOnUse" gradientTransform="translate(19.789 32.3529) rotate(-41.186) scale(2.85876 2.23051)">
<stop stop-color="#FFE6C7"/>
<stop offset="1" stop-color="#FFE6C7" stop-opacity="0"/>
</radialGradient>
<radialGradient id="paint2_radial_110_1821" cx="0" cy="0" r="1" gradientUnits="userSpaceOnUse" gradientTransform="translate(25.7756 22.7262) rotate(-46.436) scale(5.71757 4.1419)">
<stop stop-color="#F2C0A5"/>
<stop offset="1" stop-color="#F2C0A5" stop-opacity="0"/>
</radialGradient>
<radialGradient id="paint3_radial_110_1821" cx="0" cy="0" r="1" gradientUnits="userSpaceOnUse" gradientTransform="translate(18.4117 22.0394) rotate(-44.206) scale(8.24535 5.08305)">
<stop stop-color="#DDA895"/>
<stop offset="1" stop-color="#DDA895" stop-opacity="0"/>
</radialGradient>
<radialGradient id="paint4_radial_110_1821" cx="0" cy="0" r="1" gradientUnits="userSpaceOnUse" gradientTransform="translate(25.6772 8.84123) rotate(117.388) scale(11.3716 20.2187)">
<stop stop-color="#C08494"/>
<stop offset="1" stop-color="#C08494" stop-opacity="0"/>
</radialGradient>
<radialGradient id="paint5_radial_110_1821" cx="0" cy="0" r="1" gradientUnits="userSpaceOnUse" gradientTransform="translate(18.1849 18.9701) scale(11.9825 18.4416)">
<stop offset="0.864" stop-color="#EDB29B" stop-opacity="0"/>
<stop offset="1" stop-color="#EDB29B"/>
</radialGradient>
<radialGradient id="paint6_radial_110_1821" cx="0" cy="0" r="1" gradientUnits="userSpaceOnUse" gradientTransform="translate(19.6258 26.2881) rotate(-141.1) scale(1.20508 1.587)">
<stop stop-color="#FFDBBA"/>
<stop offset="1" stop-color="#FFDBBA" stop-opacity="0"/>
</radialGradient>
<linearGradient id="paint7_linear_110_1821" x1="22.8463" y1="11.0589" x2="22.8463" y2="13.7101" gradientUnits="userSpaceOnUse">
<stop stop-color="#B57895"/>
<stop offset="1" stop-color="#B57895" stop-opacity="0"/>
</linearGradient>
<linearGradient id="paint8_linear_110_1821" x1="18.8304" y1="24.0901" x2="18.8303" y2="12.2357" gradientUnits="userSpaceOnUse">
<stop stop-color="#B5755F"/>
<stop offset="1" stop-color="#B3748D"/>
</linearGradient>
<linearGradient id="paint9_linear_110_1821" x1="13.7695" y1="24.3725" x2="20.0524" y2="24.3725" gradientUnits="userSpaceOnUse">
<stop stop-color="#FFD8BA"/>
<stop offset="1" stop-color="#ECB9A3"/>
</linearGradient>
<radialGradient id="paint10_radial_110_1821" cx="0" cy="0" r="1" gradientUnits="userSpaceOnUse" gradientTransform="translate(20.111 23.0234) rotate(180) scale(5.11109 2.05005)">
<stop stop-color="#DFA995"/>
<stop offset="1" stop-color="#DFA995" stop-opacity="0"/>
</radialGradient>
<radialGradient id="paint11_radial_110_1821" cx="0" cy="0" r="1" gradientUnits="userSpaceOnUse" gradientTransform="translate(19.6111 22.3831) rotate(37.367) scale(1.79043 1.19846)">
<stop stop-color="#CA8C6F"/>
<stop offset="1" stop-color="#CA8C6F" stop-opacity="0"/>
</radialGradient>
<linearGradient id="paint12_linear_110_1821" x1="14.761" y1="24.9842" x2="19.8628" y2="24.9841" gradientUnits="userSpaceOnUse">
<stop stop-color="#FFE7CA"/>
<stop offset="1" stop-color="#FFE7CA" stop-opacity="0"/>
</linearGradient>
<linearGradient id="paint13_linear_110_1821" x1="14.6005" y1="14.1895" x2="20.8371" y2="14.1895" gradientUnits="userSpaceOnUse">
<stop stop-color="#FECEB7"/>
<stop offset="1" stop-color="#DAA59E"/>
</linearGradient>
<radialGradient id="paint14_radial_110_1821" cx="0" cy="0" r="1" gradientUnits="userSpaceOnUse" gradientTransform="translate(18.8685 12.0057) rotate(180) scale(6.33117 1.20031)">
<stop stop-color="#BF8196"/>
<stop offset="1" stop-color="#BF8196" stop-opacity="0"/>
</radialGradient>
<radialGradient id="paint15_radial_110_1821" cx="0" cy="0" r="1" gradientUnits="userSpaceOnUse" gradientTransform="translate(19.1925 15.6073) rotate(180) scale(5.19109 1.16715)">
<stop stop-color="#B57767"/>
<stop offset="1" stop-color="#B57767" stop-opacity="0"/>
</radialGradient>
<linearGradient id="paint16_linear_110_1821" x1="14.7292" y1="14.7628" x2="19.1947" y2="14.7628" gradientUnits="userSpaceOnUse">
<stop stop-color="#FFD2C1"/>
<stop offset="1" stop-color="#FFD2C1" stop-opacity="0"/>
</linearGradient>
<linearGradient id="paint17_linear_110_1821" x1="13.6885" y1="17.3726" x2="20.8383" y2="17.3726" gradientUnits="userSpaceOnUse">
<stop stop-color="#FFDDC1"/>
<stop offset="1" stop-color="#E5B1A3"/>
</linearGradient>
<radialGradient id="paint18_radial_110_1821" cx="0" cy="0" r="1" gradientUnits="userSpaceOnUse" gradientTransform="translate(19.2508 15.0724) rotate(180) scale(7.1096 2.52914)">
<stop offset="0.14" stop-color="#CA8E96"/>
<stop offset="1" stop-color="#CA8E96" stop-opacity="0"/>
</radialGradient>
<radialGradient id="paint19_radial_110_1821" cx="0" cy="0" r="1" gradientUnits="userSpaceOnUse" gradientTransform="translate(18.6175 19.271) rotate(180) scale(3.66655 1.4884)">
<stop stop-color="#BB7E6C"/>
<stop offset="1" stop-color="#BB7E6C" stop-opacity="0"/>
</radialGradient>
<linearGradient id="paint20_linear_110_1821" x1="14.0388" y1="17.7442" x2="19.6304" y2="17.7442" gradientUnits="userSpaceOnUse">
<stop stop-color="#FFE2C9"/>
<stop offset="1" stop-color="#FFE2C9" stop-opacity="0"/>
</linearGradient>
<linearGradient id="paint21_linear_110_1821" x1="13.0371" y1="20.8542" x2="20.838" y2="20.8542" gradientUnits="userSpaceOnUse">
<stop stop-color="#FFDFBF"/>
<stop offset="1" stop-color="#E2AE9C"/>
</linearGradient>
<radialGradient id="paint22_radial_110_1821" cx="0" cy="0" r="1" gradientUnits="userSpaceOnUse" gradientTransform="translate(18.8571 18.6041) rotate(180) scale(6.24329 2.89793)">
<stop stop-color="#D39797"/>
<stop offset="1" stop-color="#D39797" stop-opacity="0"/>
</radialGradient>
<linearGradient id="paint23_linear_110_1821" x1="14.0574" y1="21.626" x2="20.0209" y2="21.626" gradientUnits="userSpaceOnUse">
<stop stop-color="#FFE8CA"/>
<stop offset="1" stop-color="#FFE8CA" stop-opacity="0"/>
</linearGradient>
<radialGradient id="paint24_radial_110_1821" cx="0" cy="0" r="1" gradientUnits="userSpaceOnUse" gradientTransform="translate(24.2661 30.3101) rotate(-90) scale(4.88197 1.92676)">
<stop stop-color="#E0A892"/>
<stop offset="1" stop-color="#E0A892" stop-opacity="0"/>
</radialGradient>
<linearGradient id="paint25_linear_110_1821" x1="19.9894" y1="30.8015" x2="21.9602" y2="30.8015" gradientUnits="userSpaceOnUse">
<stop stop-color="#FFE7CA"/>
<stop offset="1" stop-color="#FFE7CA" stop-opacity="0"/>
</linearGradient>
</defs>
</svg>
