<svg width="18" height="18" viewBox="0 0 18 18" fill="none" xmlns="http://www.w3.org/2000/svg">
<path d="M14.2502 14.9997H3.75022C3.55131 14.9997 3.36054 15.0787 3.21989 15.2193C3.07924 15.36 3.00022 15.5507 3.00022 15.7497C3.00022 15.9486 3.07924 16.1393 3.21989 16.28C3.36054 16.4206 3.55131 16.4997 3.75022 16.4997H14.2502C14.4491 16.4997 14.6399 16.4206 14.7806 16.28C14.9212 16.1393 15.0002 15.9486 15.0002 15.7497C15.0002 15.5507 14.9212 15.36 14.7806 15.2193C14.6399 15.0787 14.4491 14.9997 14.2502 14.9997ZM3.75022 13.4996H3.81772L6.94522 13.2147C7.28782 13.1805 7.60825 13.0296 7.85272 12.7871L14.6027 6.03715C14.8647 5.76037 15.0063 5.39103 14.9965 5.01005C14.9866 4.62907 14.8261 4.26753 14.5502 4.00465L12.4952 1.94965C12.227 1.69772 11.8756 1.55317 11.5077 1.54349C11.1399 1.53381 10.7813 1.65968 10.5002 1.89715L3.75022 8.64715C3.5078 8.89162 3.35685 9.21205 3.32272 9.55465L3.00022 12.6821C2.99012 12.792 3.00437 12.9027 3.04197 13.0064C3.07956 13.1101 3.13957 13.2043 3.21772 13.2821C3.2878 13.3517 3.37091 13.4067 3.46229 13.444C3.55367 13.4813 3.65152 13.5002 3.75022 13.4996ZM11.4527 2.99965L13.5002 5.04715L12.0002 6.50965L9.99022 4.49965L11.4527 2.99965ZM4.77772 9.68215L9.00022 5.48965L11.0252 7.51465L6.82522 11.7146L4.57522 11.9246L4.77772 9.68215Z" fill="white"/>
</svg>
