<svg width="24" height="25" viewBox="0 0 24 25" fill="none" xmlns="http://www.w3.org/2000/svg">
<path d="M15.06 10.3302C15.6238 10.1425 16.2332 10.1425 16.797 10.3302C17.165 10.4532 17.469 10.6682 17.764 10.9262C18.046 11.1742 18.366 11.5052 18.749 11.9012C19.2063 12.3765 19.6643 12.8512 20.123 13.3252C20.571 13.7872 20.751 14.2752 20.749 14.9272C20.743 16.5862 20.708 17.7242 20.232 18.6572C19.7764 19.5507 19.0497 20.277 18.156 20.7322C16.811 21.4182 15.091 21.2502 13.633 21.2502H10.367C9.27499 21.2502 8.40899 21.2502 7.71199 21.1932C6.99799 21.1352 6.39499 21.0132 5.84399 20.7332C4.95013 20.2778 4.22341 19.5511 3.76799 18.6572C3.47299 18.0782 3.35799 17.4482 3.29799 16.6812C3.20999 15.5212 4.19399 14.5822 4.95099 13.8192C5.25799 13.5092 5.58199 13.2492 5.98399 13.1012C6.59391 12.8782 7.26308 12.8782 7.87299 13.1012C8.27499 13.2492 8.59899 13.5092 8.90599 13.8192C9.20399 14.1192 9.53799 14.5192 9.94199 15.0042C9.97699 15.0472 10.032 15.0872 10.083 15.0342L13.108 11.9012C13.492 11.5052 13.811 11.1742 14.093 10.9262C14.388 10.6682 14.693 10.4532 15.06 10.3302ZM15.083 12.0532C14.853 12.2552 14.576 12.5412 14.166 12.9662L11.162 16.0762C11.0079 16.2359 10.8218 16.3614 10.616 16.4444C10.4101 16.5274 10.1891 16.5661 9.96729 16.558C9.74549 16.5499 9.52788 16.4951 9.32865 16.3973C9.12942 16.2995 8.95304 16.1607 8.81099 15.9902C8.37999 15.4742 8.08699 15.1232 7.84099 14.8762C7.60099 14.6332 7.46099 14.5482 7.35799 14.5102C7.08065 14.4087 6.77633 14.4087 6.49899 14.5102C6.39599 14.5482 6.25699 14.6332 6.01599 14.8762C5.64599 15.2482 5.31899 15.6632 4.98399 16.0662C4.82299 16.2592 4.77899 16.3612 4.79699 16.6062C4.84699 17.2622 4.94399 17.6612 5.10399 17.9762C5.41555 18.5876 5.91262 19.0846 6.52399 19.3962C6.82899 19.5512 7.21399 19.6472 7.83399 19.6982C8.46399 19.7492 9.26799 19.7502 10.4 19.7502H13.6C14.792 19.7502 16.365 19.9622 17.476 19.3962C18.0874 19.0846 18.5844 18.5876 18.896 17.9762C19.178 17.4212 19.242 16.6732 19.249 14.9222C19.25 14.6482 19.208 14.5362 19.011 14.3332L17.691 12.9662C17.281 12.5412 17.005 12.2562 16.774 12.0532C16.259 11.6012 15.62 11.5812 15.083 12.0532Z" fill="#16291E"/>
<path d="M10.367 3.75H13.633C14.725 3.75 15.591 3.75 16.288 3.807C17.002 3.865 17.605 3.987 18.157 4.267C19.0506 4.72284 19.777 5.44992 20.232 6.344C20.513 6.894 20.635 7.498 20.693 8.212C20.75 8.909 20.75 9.775 20.75 10.867V14.133C20.75 15.225 20.75 16.091 20.693 16.788C20.635 17.502 20.513 18.105 20.233 18.657C19.7772 19.5506 19.0501 20.277 18.156 20.732C17.606 21.013 17.002 21.135 16.288 21.193C15.591 21.25 14.725 21.25 13.633 21.25H10.367C9.275 21.25 8.409 21.25 7.712 21.193C6.998 21.135 6.395 21.013 5.844 20.733C4.95014 20.2776 4.22341 19.5509 3.768 18.657C3.487 18.105 3.365 17.502 3.307 16.788C3.25 16.091 3.25 15.225 3.25 14.133V10.867C3.25 9.775 3.25 8.909 3.307 8.212C3.365 7.498 3.487 6.895 3.767 6.344C4.22267 5.44999 4.94977 4.72324 5.844 4.268C6.394 3.987 6.998 3.865 7.712 3.807C8.409 3.75 9.275 3.75 10.367 3.75ZM7.834 5.302C7.214 5.352 6.829 5.449 6.524 5.604C5.91263 5.91556 5.41556 6.41263 5.104 7.024C4.949 7.329 4.853 7.714 4.802 8.334C4.751 8.964 4.75 9.768 4.75 10.9V14.1C4.75 15.233 4.75 16.037 4.802 16.666C4.852 17.286 4.949 17.671 5.104 17.976C5.41556 18.5874 5.91263 19.0844 6.524 19.396C6.829 19.551 7.214 19.647 7.834 19.698C8.464 19.749 9.268 19.75 10.4 19.75H13.6C14.733 19.75 15.537 19.75 16.166 19.698C16.786 19.648 17.171 19.551 17.476 19.396C18.0874 19.0844 18.5844 18.5874 18.896 17.976C19.051 17.671 19.147 17.286 19.198 16.666C19.249 16.036 19.25 15.232 19.25 14.1V10.9C19.25 9.768 19.25 8.963 19.198 8.334C19.148 7.714 19.051 7.329 18.896 7.024C18.5844 6.41263 18.0874 5.91556 17.476 5.604C17.171 5.449 16.786 5.353 16.166 5.302C15.536 5.251 14.732 5.25 13.6 5.25H10.4C9.268 5.25 8.463 5.25 7.834 5.302Z" fill="#16291E"/>
<path opacity="0.5" d="M10 8.25C9.66848 8.25 9.35054 8.3817 9.11612 8.61612C8.8817 8.85054 8.75 9.16848 8.75 9.5C8.75 9.83152 8.8817 10.1495 9.11612 10.3839C9.35054 10.6183 9.66848 10.75 10 10.75C10.3315 10.75 10.6495 10.6183 10.8839 10.3839C11.1183 10.1495 11.25 9.83152 11.25 9.5C11.25 9.16848 11.1183 8.85054 10.8839 8.61612C10.6495 8.3817 10.3315 8.25 10 8.25ZM7.25 9.5C7.25 8.77065 7.53973 8.07118 8.05546 7.55546C8.57118 7.03973 9.27065 6.75 10 6.75C10.7293 6.75 11.4288 7.03973 11.9445 7.55546C12.4603 8.07118 12.75 8.77065 12.75 9.5C12.75 10.2293 12.4603 10.9288 11.9445 11.4445C11.4288 11.9603 10.7293 12.25 10 12.25C9.27065 12.25 8.57118 11.9603 8.05546 11.4445C7.53973 10.9288 7.25 10.2293 7.25 9.5Z" fill="#FF8502"/>
</svg>
