<svg width="40" height="32" viewBox="0 0 40 32" fill="none" xmlns="http://www.w3.org/2000/svg">
<rect width="40" height="32" rx="8" fill="#16291E" fill-opacity="0.05"/>
<path d="M15 13.5C15 12.837 15.2634 12.2011 15.7322 11.7322C16.2011 11.2634 16.837 11 17.5 11C18.163 11 18.7989 11.2634 19.2678 11.7322C19.7366 12.2011 20 12.837 20 13.5C20 14.163 19.7366 14.7989 19.2678 15.2678C18.7989 15.7366 18.163 16 17.5 16C16.837 16 16.2011 15.7366 15.7322 15.2678C15.2634 14.7989 15 14.163 15 13.5ZM17.5 12C17.1022 12 16.7206 12.158 16.4393 12.4393C16.158 12.7206 16 13.1022 16 13.5C16 13.8978 16.158 14.2794 16.4393 14.5607C16.7206 14.842 17.1022 15 17.5 15C17.8978 15 18.2794 14.842 18.5607 14.5607C18.842 14.2794 19 13.8978 19 13.5C19 13.1022 18.842 12.7206 18.5607 12.4393C18.2794 12.158 17.8978 12 17.5 12Z" fill="#16291E"/>
<path d="M21.123 8H17.877C16.777 8 15.919 8 15.232 8.056C14.534 8.113 13.967 8.231 13.457 8.49C12.61 8.92147 11.9215 9.61005 11.49 10.457C11.23 10.967 11.113 11.534 11.056 12.232C11 12.92 11 13.776 11 14.877V18.123C11 19.069 11 19.835 11.036 20.468C11.0387 20.5327 11.0427 20.5993 11.048 20.668L11.051 20.699C11.086 21.165 11.146 21.573 11.255 21.945C11.3157 22.1543 11.394 22.3537 11.49 22.543C11.9215 23.39 12.61 24.0785 13.457 24.51C13.967 24.77 14.534 24.887 15.232 24.944C15.919 25 16.776 25 17.877 25H21.123C22.223 25 23.081 25 23.768 24.944C24.466 24.887 25.033 24.769 25.543 24.51C26.39 24.0785 27.0785 23.39 27.51 22.543C28.006 21.568 28.003 20.39 28 19.302L27.999 18.96L28 18.123V14.877C28 13.777 28 12.919 27.944 12.232C27.887 11.534 27.769 10.967 27.51 10.457C27.0785 9.61005 26.39 8.92147 25.543 8.49C25.033 8.23 24.466 8.113 23.768 8.056C23.081 8 22.224 8 21.123 8ZM12.053 20.686L12.047 20.616C12.006 19.988 12.65 19.366 13.126 18.907C13.2027 18.8337 13.2733 18.7647 13.338 18.7C13.59 18.446 13.761 18.331 13.914 18.276C14.2466 18.1544 14.6114 18.1544 14.944 18.276C15.096 18.331 15.267 18.446 15.519 18.7C15.774 18.957 16.075 19.317 16.503 19.83C16.6225 19.9738 16.771 20.0907 16.9388 20.1732C17.1066 20.2557 17.2899 20.3019 17.4767 20.3088C17.6635 20.3157 17.8497 20.2831 18.0231 20.2132C18.1965 20.1433 18.3532 20.0376 18.483 19.903L21.486 16.792C21.573 16.702 21.664 16.6 21.758 16.495C22.103 16.109 22.496 15.669 22.955 15.516C23.2624 15.4137 23.5946 15.4137 23.902 15.516C24.675 15.774 25.401 16.645 26.032 17.402C26.266 17.682 26.486 17.947 26.692 18.159C26.943 18.42 27 18.57 26.999 18.922C26.996 19.792 26.979 20.429 26.924 20.927C26.867 21.432 26.771 21.789 26.619 22.089C26.2834 22.7478 25.7478 23.2834 25.089 23.619C24.743 23.795 24.323 23.895 23.687 23.947C23.045 24 22.228 24 21.1 24H17.9C16.772 24 15.955 24 15.314 23.947C14.677 23.895 14.257 23.795 13.911 23.619C13.208 23.26 12.647 22.674 12.319 21.956C12.181 21.635 12.099 21.243 12.053 20.686ZM27 17.04L26.075 16.082C25.7621 15.747 25.4365 15.4241 25.099 15.114C24.816 14.866 24.541 14.675 24.218 14.568C23.7055 14.3974 23.1515 14.3974 22.639 14.568C22.316 14.675 22.041 14.866 21.759 15.114C21.484 15.354 21.171 15.679 20.782 16.082L17.763 19.208C17.7308 19.2415 17.6919 19.2679 17.6488 19.2853C17.6057 19.3027 17.5594 19.3108 17.513 19.3091C17.4665 19.3074 17.421 19.296 17.3793 19.2754C17.3376 19.2549 17.3007 19.2258 17.271 19.19L17.256 19.172C16.846 18.681 16.518 18.287 16.229 17.995C15.933 17.697 15.639 17.465 15.287 17.336C14.7326 17.1333 14.1244 17.1333 13.57 17.336C13.218 17.466 12.925 17.696 12.628 17.996C12.4096 18.221 12.2001 18.4546 12 18.696V14.9C12 13.772 12 12.955 12.053 12.314C12.105 11.677 12.205 11.257 12.381 10.911C12.7166 10.2522 13.2522 9.7166 13.911 9.381C14.257 9.205 14.677 9.105 15.314 9.053C15.955 9 16.772 9 17.9 9H21.1C22.228 9 23.045 9 23.686 9.053C24.323 9.105 24.743 9.205 25.089 9.381C25.7478 9.7166 26.2834 10.2522 26.619 10.911C26.795 11.257 26.895 11.677 26.947 12.314C27 12.955 27 13.772 27 14.9V17.04Z" fill="#16291E"/>
</svg>
