<svg width="45" height="45" viewBox="0 0 45 45" fill="none" xmlns="http://www.w3.org/2000/svg">
<rect x="0.5" y="0.5" width="44" height="44" rx="22" fill="#16291E" fill-opacity="0.04"/>
<rect x="0.5" y="0.5" width="44" height="44" rx="22" stroke="#80FFB5"/>
<g filter="url(#filter0_i_110_1782)">
<path d="M18.6704 14.5813C18.6645 14.2444 18.7258 13.9098 18.8506 13.5969C18.9754 13.284 19.1613 12.9991 19.3975 12.7588C19.6336 12.5185 19.9152 12.3277 20.2259 12.1974C20.5366 12.0671 20.8701 12 21.207 12C21.5439 12 21.8774 12.0671 22.1881 12.1974C22.4988 12.3277 22.7804 12.5185 23.0165 12.7588C23.2527 12.9991 23.4386 13.284 23.5634 13.5969C23.6883 13.9098 23.7495 14.2444 23.7437 14.5813V17.5001C23.7447 17.749 23.7262 17.9977 23.6881 18.2461C23.6742 18.3363 23.6596 18.4273 23.6511 18.5176C23.6233 18.803 23.6573 19.1763 23.8517 19.427L23.3873 19.8744C24.5691 20.4798 25.5606 21.3999 26.2524 22.5332C26.9441 23.6666 27.3093 24.9691 27.3074 26.2969C27.3074 27.0567 27.1902 27.7895 26.9734 28.4768L26.2051 33.4961H19.9555V33.4938C16.0963 33.4105 13 30.8942 13 26.2969C13 23.5948 14.2936 21.4195 16.2513 20.193L16.2459 20.1892C16.3794 20.0966 16.5367 20.0025 16.7057 19.9014L16.7064 19.9007C17.2618 19.5682 17.9406 19.1609 18.2978 18.496C18.6086 17.919 18.6688 16.9833 18.6688 16.5498H18.6704V14.5813Z" fill="url(#paint0_linear_110_1782)"/>
</g>
<path d="M18.6704 14.5813C18.6645 14.2444 18.7258 13.9098 18.8506 13.5969C18.9754 13.284 19.1613 12.9991 19.3975 12.7588C19.6336 12.5185 19.9152 12.3277 20.2259 12.1974C20.5366 12.0671 20.8701 12 21.207 12C21.5439 12 21.8774 12.0671 22.1881 12.1974C22.4988 12.3277 22.7804 12.5185 23.0165 12.7588C23.2527 12.9991 23.4386 13.284 23.5634 13.5969C23.6883 13.9098 23.7495 14.2444 23.7437 14.5813V17.5001C23.7447 17.749 23.7262 17.9977 23.6881 18.2461C23.6742 18.3363 23.6596 18.4273 23.6511 18.5176C23.6233 18.803 23.6573 19.1763 23.8517 19.427L23.3873 19.8744C24.5691 20.4798 25.5606 21.3999 26.2524 22.5332C26.9441 23.6666 27.3093 24.9691 27.3074 26.2969C27.3074 27.0567 27.1902 27.7895 26.9734 28.4768L26.2051 33.4961H19.9555V33.4938C16.0963 33.4105 13 30.8942 13 26.2969C13 23.5948 14.2936 21.4195 16.2513 20.193L16.2459 20.1892C16.3794 20.0966 16.5367 20.0025 16.7057 19.9014L16.7064 19.9007C17.2618 19.5682 17.9406 19.1609 18.2978 18.496C18.6086 17.919 18.6688 16.9833 18.6688 16.5498H18.6704V14.5813Z" fill="url(#paint1_radial_110_1782)"/>
<path d="M18.6704 14.5813C18.6645 14.2444 18.7258 13.9098 18.8506 13.5969C18.9754 13.284 19.1613 12.9991 19.3975 12.7588C19.6336 12.5185 19.9152 12.3277 20.2259 12.1974C20.5366 12.0671 20.8701 12 21.207 12C21.5439 12 21.8774 12.0671 22.1881 12.1974C22.4988 12.3277 22.7804 12.5185 23.0165 12.7588C23.2527 12.9991 23.4386 13.284 23.5634 13.5969C23.6883 13.9098 23.7495 14.2444 23.7437 14.5813V17.5001C23.7447 17.749 23.7262 17.9977 23.6881 18.2461C23.6742 18.3363 23.6596 18.4273 23.6511 18.5176C23.6233 18.803 23.6573 19.1763 23.8517 19.427L23.3873 19.8744C24.5691 20.4798 25.5606 21.3999 26.2524 22.5332C26.9441 23.6666 27.3093 24.9691 27.3074 26.2969C27.3074 27.0567 27.1902 27.7895 26.9734 28.4768L26.2051 33.4961H19.9555V33.4938C16.0963 33.4105 13 30.8942 13 26.2969C13 23.5948 14.2936 21.4195 16.2513 20.193L16.2459 20.1892C16.3794 20.0966 16.5367 20.0025 16.7057 19.9014L16.7064 19.9007C17.2618 19.5682 17.9406 19.1609 18.2978 18.496C18.6086 17.919 18.6688 16.9833 18.6688 16.5498H18.6704V14.5813Z" fill="url(#paint2_radial_110_1782)"/>
<path d="M18.6704 14.5813C18.6645 14.2444 18.7258 13.9098 18.8506 13.5969C18.9754 13.284 19.1613 12.9991 19.3975 12.7588C19.6336 12.5185 19.9152 12.3277 20.2259 12.1974C20.5366 12.0671 20.8701 12 21.207 12C21.5439 12 21.8774 12.0671 22.1881 12.1974C22.4988 12.3277 22.7804 12.5185 23.0165 12.7588C23.2527 12.9991 23.4386 13.284 23.5634 13.5969C23.6883 13.9098 23.7495 14.2444 23.7437 14.5813V17.5001C23.7447 17.749 23.7262 17.9977 23.6881 18.2461C23.6742 18.3363 23.6596 18.4273 23.6511 18.5176C23.6233 18.803 23.6573 19.1763 23.8517 19.427L23.3873 19.8744C24.5691 20.4798 25.5606 21.3999 26.2524 22.5332C26.9441 23.6666 27.3093 24.9691 27.3074 26.2969C27.3074 27.0567 27.1902 27.7895 26.9734 28.4768L26.2051 33.4961H19.9555V33.4938C16.0963 33.4105 13 30.8942 13 26.2969C13 23.5948 14.2936 21.4195 16.2513 20.193L16.2459 20.1892C16.3794 20.0966 16.5367 20.0025 16.7057 19.9014L16.7064 19.9007C17.2618 19.5682 17.9406 19.1609 18.2978 18.496C18.6086 17.919 18.6688 16.9833 18.6688 16.5498H18.6704V14.5813Z" fill="url(#paint3_radial_110_1782)"/>
<path d="M18.6704 14.5813C18.6645 14.2444 18.7258 13.9098 18.8506 13.5969C18.9754 13.284 19.1613 12.9991 19.3975 12.7588C19.6336 12.5185 19.9152 12.3277 20.2259 12.1974C20.5366 12.0671 20.8701 12 21.207 12C21.5439 12 21.8774 12.0671 22.1881 12.1974C22.4988 12.3277 22.7804 12.5185 23.0165 12.7588C23.2527 12.9991 23.4386 13.284 23.5634 13.5969C23.6883 13.9098 23.7495 14.2444 23.7437 14.5813V17.5001C23.7447 17.749 23.7262 17.9977 23.6881 18.2461C23.6742 18.3363 23.6596 18.4273 23.6511 18.5176C23.6233 18.803 23.6573 19.1763 23.8517 19.427L23.3873 19.8744C24.5691 20.4798 25.5606 21.3999 26.2524 22.5332C26.9441 23.6666 27.3093 24.9691 27.3074 26.2969C27.3074 27.0567 27.1902 27.7895 26.9734 28.4768L26.2051 33.4961H19.9555V33.4938C16.0963 33.4105 13 30.8942 13 26.2969C13 23.5948 14.2936 21.4195 16.2513 20.193L16.2459 20.1892C16.3794 20.0966 16.5367 20.0025 16.7057 19.9014L16.7064 19.9007C17.2618 19.5682 17.9406 19.1609 18.2978 18.496C18.6086 17.919 18.6688 16.9833 18.6688 16.5498H18.6704V14.5813Z" fill="url(#paint4_radial_110_1782)"/>
<path d="M18.6704 14.5813C18.6645 14.2444 18.7258 13.9098 18.8506 13.5969C18.9754 13.284 19.1613 12.9991 19.3975 12.7588C19.6336 12.5185 19.9152 12.3277 20.2259 12.1974C20.5366 12.0671 20.8701 12 21.207 12C21.5439 12 21.8774 12.0671 22.1881 12.1974C22.4988 12.3277 22.7804 12.5185 23.0165 12.7588C23.2527 12.9991 23.4386 13.284 23.5634 13.5969C23.6883 13.9098 23.7495 14.2444 23.7437 14.5813V17.5001C23.7447 17.749 23.7262 17.9977 23.6881 18.2461C23.6742 18.3363 23.6596 18.4273 23.6511 18.5176C23.6233 18.803 23.6573 19.1763 23.8517 19.427L23.3873 19.8744C24.5691 20.4798 25.5606 21.3999 26.2524 22.5332C26.9441 23.6666 27.3093 24.9691 27.3074 26.2969C27.3074 27.0567 27.1902 27.7895 26.9734 28.4768L26.2051 33.4961H19.9555V33.4938C16.0963 33.4105 13 30.8942 13 26.2969C13 23.5948 14.2936 21.4195 16.2513 20.193L16.2459 20.1892C16.3794 20.0966 16.5367 20.0025 16.7057 19.9014L16.7064 19.9007C17.2618 19.5682 17.9406 19.1609 18.2978 18.496C18.6086 17.919 18.6688 16.9833 18.6688 16.5498H18.6704V14.5813Z" fill="url(#paint5_radial_110_1782)"/>
<path d="M18.6704 14.5813C18.6645 14.2444 18.7258 13.9098 18.8506 13.5969C18.9754 13.284 19.1613 12.9991 19.3975 12.7588C19.6336 12.5185 19.9152 12.3277 20.2259 12.1974C20.5366 12.0671 20.8701 12 21.207 12C21.5439 12 21.8774 12.0671 22.1881 12.1974C22.4988 12.3277 22.7804 12.5185 23.0165 12.7588C23.2527 12.9991 23.4386 13.284 23.5634 13.5969C23.6883 13.9098 23.7495 14.2444 23.7437 14.5813V17.5001C23.7447 17.749 23.7262 17.9977 23.6881 18.2461C23.6742 18.3363 23.6596 18.4273 23.6511 18.5176C23.6233 18.803 23.6573 19.1763 23.8517 19.427L23.3873 19.8744C24.5691 20.4798 25.5606 21.3999 26.2524 22.5332C26.9441 23.6666 27.3093 24.9691 27.3074 26.2969C27.3074 27.0567 27.1902 27.7895 26.9734 28.4768L26.2051 33.4961H19.9555V33.4938C16.0963 33.4105 13 30.8942 13 26.2969C13 23.5948 14.2936 21.4195 16.2513 20.193L16.2459 20.1892C16.3794 20.0966 16.5367 20.0025 16.7057 19.9014L16.7064 19.9007C17.2618 19.5682 17.9406 19.1609 18.2978 18.496C18.6086 17.919 18.6688 16.9833 18.6688 16.5498H18.6704V14.5813Z" fill="url(#paint6_radial_110_1782)"/>
<path d="M18.6704 14.5813C18.6645 14.2444 18.7258 13.9098 18.8506 13.5969C18.9754 13.284 19.1613 12.9991 19.3975 12.7588C19.6336 12.5185 19.9152 12.3277 20.2259 12.1974C20.5366 12.0671 20.8701 12 21.207 12C21.5439 12 21.8774 12.0671 22.1881 12.1974C22.4988 12.3277 22.7804 12.5185 23.0165 12.7588C23.2527 12.9991 23.4386 13.284 23.5634 13.5969C23.6883 13.9098 23.7495 14.2444 23.7437 14.5813V17.5001C23.7447 17.749 23.7262 17.9977 23.6881 18.2461C23.6742 18.3363 23.6596 18.4273 23.6511 18.5176C23.6233 18.803 23.6573 19.1763 23.8517 19.427L23.3873 19.8744C24.5691 20.4798 25.5606 21.3999 26.2524 22.5332C26.9441 23.6666 27.3093 24.9691 27.3074 26.2969C27.3074 27.0567 27.1902 27.7895 26.9734 28.4768L26.2051 33.4961H19.9555V33.4938C16.0963 33.4105 13 30.8942 13 26.2969C13 23.5948 14.2936 21.4195 16.2513 20.193L16.2459 20.1892C16.3794 20.0966 16.5367 20.0025 16.7057 19.9014L16.7064 19.9007C17.2618 19.5682 17.9406 19.1609 18.2978 18.496C18.6086 17.919 18.6688 16.9833 18.6688 16.5498H18.6704V14.5813Z" fill="url(#paint7_linear_110_1782)"/>
<g filter="url(#filter1_f_110_1782)">
<path d="M27.4711 21.949C27.4713 21.6904 27.4205 21.4344 27.3217 21.1954C27.2228 20.9565 27.0778 20.7394 26.895 20.5566C26.7122 20.3738 26.4951 20.2288 26.2561 20.1299C26.0172 20.031 25.7611 19.9803 25.5026 19.9805H23.3227C22.9187 19.9806 22.5245 20.1051 22.1937 20.337C21.8628 20.5689 21.6113 20.897 21.4734 21.2767C21.3354 21.6565 21.3176 22.0694 21.4224 22.4596C21.5272 22.8498 21.7495 23.1983 22.0592 23.4578C21.8228 23.6359 21.6295 23.8648 21.4936 24.1277C21.3577 24.3906 21.2828 24.6807 21.2743 24.9765C21.2657 25.2723 21.3239 25.5663 21.4444 25.8366C21.5649 26.1068 21.7447 26.3465 21.9705 26.5379C21.7524 26.7226 21.5772 26.9525 21.4571 27.2117C21.3369 27.471 21.2747 27.7533 21.2747 28.039V28.1362C21.2747 28.6761 21.4914 29.1644 21.8432 29.52C21.5733 29.7871 21.3889 30.1283 21.3133 30.5003C21.2378 30.8724 21.2745 31.2585 21.4188 31.6096C21.5632 31.9608 21.8086 32.2611 22.1239 32.4725C22.4393 32.6839 22.8104 32.7967 23.19 32.7968H25.3529C25.6895 32.7968 26.0201 32.7082 26.3115 32.5398C26.6029 32.3714 26.8448 32.1291 27.0128 31.8375C27.1808 31.5459 27.269 31.2151 27.2685 30.8785C27.2679 30.542 27.1787 30.2115 27.0098 29.9204C27.3497 29.7622 27.6372 29.5102 27.8386 29.1942C28.0401 28.8781 28.147 28.511 28.1468 28.1362V28.039C28.1468 27.4296 27.8691 26.8858 27.4356 26.5248C27.6838 26.3094 27.8742 26.0355 27.9897 25.7279C28.1053 25.4203 28.1422 25.0888 28.0973 24.7633C28.0523 24.4379 27.9268 24.1287 27.7322 23.864C27.5376 23.5993 27.2801 23.3873 26.9828 23.2472C27.2868 22.9001 27.4711 22.4458 27.4711 21.9482" fill="url(#paint8_linear_110_1782)"/>
</g>
<g filter="url(#filter2_i_110_1782)">
<path d="M26.9858 23.3683C28.2255 23.3683 29.2305 22.3633 29.2305 21.1236C29.2305 19.8839 28.2255 18.8789 26.9858 18.8789H24.4996C23.2599 18.8789 22.255 19.8839 22.255 21.1236C22.255 22.3633 23.2599 23.3683 24.4996 23.3683H26.9858Z" fill="url(#paint9_linear_110_1782)"/>
<path d="M26.9858 23.3683C28.2255 23.3683 29.2305 22.3633 29.2305 21.1236C29.2305 19.8839 28.2255 18.8789 26.9858 18.8789H24.4996C23.2599 18.8789 22.255 19.8839 22.255 21.1236C22.255 22.3633 23.2599 23.3683 24.4996 23.3683H26.9858Z" fill="url(#paint10_radial_110_1782)"/>
<path d="M26.9858 23.3683C28.2255 23.3683 29.2305 22.3633 29.2305 21.1236C29.2305 19.8839 28.2255 18.8789 26.9858 18.8789H24.4996C23.2599 18.8789 22.255 19.8839 22.255 21.1236C22.255 22.3633 23.2599 23.3683 24.4996 23.3683H26.9858Z" fill="url(#paint11_radial_110_1782)"/>
</g>
<g filter="url(#filter3_f_110_1782)">
<path d="M27.5147 19.9805H24.7223C24.1864 19.9805 23.752 20.4149 23.752 20.9509C23.752 21.4868 24.1864 21.9212 24.7223 21.9212H27.5147C28.0506 21.9212 28.4851 21.4868 28.4851 20.9509C28.4851 20.4149 28.0506 19.9805 27.5147 19.9805Z" fill="url(#paint12_linear_110_1782)"/>
</g>
<g filter="url(#filter4_i_110_1782)">
<path d="M26.8135 33.495C28.02 33.495 28.998 32.517 28.998 31.3105C28.998 30.104 28.02 29.126 26.8135 29.126H24.3474C23.141 29.126 22.1629 30.104 22.1629 31.3105C22.1629 32.517 23.141 33.495 24.3474 33.495H26.8135Z" fill="url(#paint13_linear_110_1782)"/>
<path d="M26.8135 33.495C28.02 33.495 28.998 32.517 28.998 31.3105C28.998 30.104 28.02 29.126 26.8135 29.126H24.3474C23.141 29.126 22.1629 30.104 22.1629 31.3105C22.1629 32.517 23.141 33.495 24.3474 33.495H26.8135Z" fill="url(#paint14_radial_110_1782)"/>
<path d="M26.8135 33.495C28.02 33.495 28.998 32.517 28.998 31.3105C28.998 30.104 28.02 29.126 26.8135 29.126H24.3474C23.141 29.126 22.1629 30.104 22.1629 31.3105C22.1629 32.517 23.141 33.495 24.3474 33.495H26.8135Z" fill="url(#paint15_radial_110_1782)"/>
</g>
<g filter="url(#filter5_f_110_1782)">
<path d="M27.9167 30.4248H24.913C24.5986 30.4248 24.3438 30.6797 24.3438 30.9941C24.3438 31.3085 24.5986 31.5633 24.913 31.5633H27.9167C28.2311 31.5633 28.486 31.3085 28.486 30.9941C28.486 30.6797 28.2311 30.4248 27.9167 30.4248Z" fill="url(#paint16_linear_110_1782)"/>
</g>
<g filter="url(#filter6_i_110_1782)">
<path d="M29.998 28.179V28.0679C29.998 26.8282 28.9931 25.8232 27.7534 25.8232H24.4064C23.1667 25.8232 22.1617 26.8282 22.1617 28.0679V28.179C22.1617 29.4187 23.1667 30.4237 24.4064 30.4237H27.7534C28.9931 30.4237 29.998 29.4187 29.998 28.179Z" fill="url(#paint17_linear_110_1782)"/>
<path d="M29.998 28.179V28.0679C29.998 26.8282 28.9931 25.8232 27.7534 25.8232H24.4064C23.1667 25.8232 22.1617 26.8282 22.1617 28.0679V28.179C22.1617 29.4187 23.1667 30.4237 24.4064 30.4237H27.7534C28.9931 30.4237 29.998 29.4187 29.998 28.179Z" fill="url(#paint18_radial_110_1782)"/>
<path d="M29.998 28.179V28.0679C29.998 26.8282 28.9931 25.8232 27.7534 25.8232H24.4064C23.1667 25.8232 22.1617 26.8282 22.1617 28.0679V28.179C22.1617 29.4187 23.1667 30.4237 24.4064 30.4237H27.7534C28.9931 30.4237 29.998 29.4187 29.998 28.179Z" fill="url(#paint19_radial_110_1782)"/>
</g>
<g filter="url(#filter7_f_110_1782)">
<path d="M28.6612 27.4395H24.6122C24.2978 27.4395 24.043 27.6943 24.043 28.0087C24.043 28.3231 24.2978 28.578 24.6122 28.578H28.6612C28.9756 28.578 29.2304 28.3231 29.2304 28.0087C29.2304 27.6943 28.9756 27.4395 28.6612 27.4395Z" fill="url(#paint20_linear_110_1782)"/>
</g>
<g filter="url(#filter8_i_110_1782)">
<path d="M29.9629 24.6473V24.6373C29.9629 23.3976 28.9579 22.3926 27.7182 22.3926H24.4059C23.1662 22.3926 22.1612 23.3976 22.1612 24.6373V24.6473C22.1612 25.887 23.1662 26.892 24.4059 26.892H27.7182C28.9579 26.892 29.9629 25.887 29.9629 24.6473Z" fill="url(#paint21_linear_110_1782)"/>
<path d="M29.9629 24.6473V24.6373C29.9629 23.3976 28.9579 22.3926 27.7182 22.3926H24.4059C23.1662 22.3926 22.1612 23.3976 22.1612 24.6373V24.6473C22.1612 25.887 23.1662 26.892 24.4059 26.892H27.7182C28.9579 26.892 29.9629 25.887 29.9629 24.6473Z" fill="url(#paint22_radial_110_1782)"/>
</g>
<g filter="url(#filter9_f_110_1782)">
<path d="M28.2592 23.3379H24.6677C24.1317 23.3379 23.6973 23.7723 23.6973 24.3083C23.6973 24.8442 24.1317 25.2787 24.6677 25.2787H28.2592C28.7951 25.2787 29.2295 24.8442 29.2295 24.3083C29.2295 23.7723 28.7951 23.3379 28.2592 23.3379Z" fill="url(#paint23_linear_110_1782)"/>
</g>
<path d="M21.2146 12.0449C20.5418 12.0451 19.8966 12.3125 19.4209 12.7882C18.9451 13.264 18.6778 13.9092 18.6776 14.582V16.5505H18.676C18.676 16.984 18.6158 17.9197 18.3058 18.4967C17.9478 19.1616 17.269 19.5689 16.7144 19.9006C16.5447 20.0024 16.3874 20.0973 16.2539 20.1898C17.0214 20.8046 18.5927 22.0334 18.6313 22.0041C18.6698 21.9748 20.4394 21.036 21.3187 20.5694L21.2817 20.0371C21.9425 20.0192 22.5703 19.7442 23.0315 19.2705C23.4926 18.7968 23.7507 18.1619 23.7509 17.5008V14.582C23.7507 13.9093 23.4834 13.2642 23.0078 12.7885C22.5323 12.3128 21.8873 12.0453 21.2146 12.0449Z" fill="url(#paint24_radial_110_1782)"/>
<g filter="url(#filter10_f_110_1782)">
<path d="M23.1055 13.917C23.1055 13.4122 22.6962 13.0029 22.1914 13.0029C21.6866 13.0029 21.2773 13.4122 21.2773 13.917V18.2575C21.2773 18.7623 21.6866 19.1716 22.1914 19.1716C22.6962 19.1716 23.1055 18.7623 23.1055 18.2575V13.917Z" fill="url(#paint25_linear_110_1782)"/>
</g>
<defs>
<filter id="filter0_i_110_1782" x="13" y="12" width="14.6923" height="21.4961" filterUnits="userSpaceOnUse" color-interpolation-filters="sRGB">
<feFlood flood-opacity="0" result="BackgroundImageFix"/>
<feBlend mode="normal" in="SourceGraphic" in2="BackgroundImageFix" result="shape"/>
<feColorMatrix in="SourceAlpha" type="matrix" values="0 0 0 0 0 0 0 0 0 0 0 0 0 0 0 0 0 0 127 0" result="hardAlpha"/>
<feOffset dx="0.385686"/>
<feGaussianBlur stdDeviation="1.15706"/>
<feComposite in2="hardAlpha" operator="arithmetic" k2="-1" k3="1"/>
<feColorMatrix type="matrix" values="0 0 0 0 0.87451 0 0 0 0 0.67451 0 0 0 0 0.568627 0 0 0 1 0"/>
<feBlend mode="normal" in2="shape" result="effect1_innerShadow_110_1782"/>
</filter>
<filter id="filter1_f_110_1782" x="19.7307" y="18.4377" width="9.95853" height="15.9019" filterUnits="userSpaceOnUse" color-interpolation-filters="sRGB">
<feFlood flood-opacity="0" result="BackgroundImageFix"/>
<feBlend mode="normal" in="SourceGraphic" in2="BackgroundImageFix" result="shape"/>
<feGaussianBlur stdDeviation="0.771372" result="effect1_foregroundBlur_110_1782"/>
</filter>
<filter id="filter2_i_110_1782" x="22.2559" y="18.8789" width="7.3603" height="4.48926" filterUnits="userSpaceOnUse" color-interpolation-filters="sRGB">
<feFlood flood-opacity="0" result="BackgroundImageFix"/>
<feBlend mode="normal" in="SourceGraphic" in2="BackgroundImageFix" result="shape"/>
<feColorMatrix in="SourceAlpha" type="matrix" values="0 0 0 0 0 0 0 0 0 0 0 0 0 0 0 0 0 0 127 0" result="hardAlpha"/>
<feOffset dx="0.385686"/>
<feGaussianBlur stdDeviation="0.578529"/>
<feComposite in2="hardAlpha" operator="arithmetic" k2="-1" k3="1"/>
<feColorMatrix type="matrix" values="0 0 0 0 0.898039 0 0 0 0 0.690196 0 0 0 0 0.568627 0 0 0 1 0"/>
<feBlend mode="normal" in2="shape" result="effect1_innerShadow_110_1782"/>
</filter>
<filter id="filter3_f_110_1782" x="22.7877" y="19.0163" width="6.66085" height="3.86886" filterUnits="userSpaceOnUse" color-interpolation-filters="sRGB">
<feFlood flood-opacity="0" result="BackgroundImageFix"/>
<feBlend mode="normal" in="SourceGraphic" in2="BackgroundImageFix" result="shape"/>
<feGaussianBlur stdDeviation="0.482107" result="effect1_foregroundBlur_110_1782"/>
</filter>
<filter id="filter4_i_110_1782" x="22.1621" y="29.126" width="7.22162" height="4.75483" filterUnits="userSpaceOnUse" color-interpolation-filters="sRGB">
<feFlood flood-opacity="0" result="BackgroundImageFix"/>
<feBlend mode="normal" in="SourceGraphic" in2="BackgroundImageFix" result="shape"/>
<feColorMatrix in="SourceAlpha" type="matrix" values="0 0 0 0 0 0 0 0 0 0 0 0 0 0 0 0 0 0 127 0" result="hardAlpha"/>
<feOffset dx="0.385686" dy="0.385686"/>
<feGaussianBlur stdDeviation="0.578529"/>
<feComposite in2="hardAlpha" operator="arithmetic" k2="-1" k3="1"/>
<feColorMatrix type="matrix" values="0 0 0 0 0.811765 0 0 0 0 0.568627 0 0 0 0 0.541176 0 0 0 1 0"/>
<feBlend mode="normal" in2="shape" result="effect1_innerShadow_110_1782"/>
</filter>
<filter id="filter5_f_110_1782" x="23.3795" y="29.4606" width="6.07101" height="3.0671" filterUnits="userSpaceOnUse" color-interpolation-filters="sRGB">
<feFlood flood-opacity="0" result="BackgroundImageFix"/>
<feBlend mode="normal" in="SourceGraphic" in2="BackgroundImageFix" result="shape"/>
<feGaussianBlur stdDeviation="0.482107" result="effect1_foregroundBlur_110_1782"/>
</filter>
<filter id="filter6_i_110_1782" x="22.1621" y="25.8232" width="8.60731" height="4.98627" filterUnits="userSpaceOnUse" color-interpolation-filters="sRGB">
<feFlood flood-opacity="0" result="BackgroundImageFix"/>
<feBlend mode="normal" in="SourceGraphic" in2="BackgroundImageFix" result="shape"/>
<feColorMatrix in="SourceAlpha" type="matrix" values="0 0 0 0 0 0 0 0 0 0 0 0 0 0 0 0 0 0 127 0" result="hardAlpha"/>
<feOffset dx="0.771372" dy="0.385686"/>
<feGaussianBlur stdDeviation="0.578529"/>
<feComposite in2="hardAlpha" operator="arithmetic" k2="-1" k3="1"/>
<feColorMatrix type="matrix" values="0 0 0 0 0.831373 0 0 0 0 0.576471 0 0 0 0 0.505882 0 0 0 1 0"/>
<feBlend mode="normal" in2="shape" result="effect1_innerShadow_110_1782"/>
</filter>
<filter id="filter7_f_110_1782" x="23.0788" y="26.4752" width="7.11593" height="3.0671" filterUnits="userSpaceOnUse" color-interpolation-filters="sRGB">
<feFlood flood-opacity="0" result="BackgroundImageFix"/>
<feBlend mode="normal" in="SourceGraphic" in2="BackgroundImageFix" result="shape"/>
<feGaussianBlur stdDeviation="0.482107" result="effect1_foregroundBlur_110_1782"/>
</filter>
<filter id="filter8_i_110_1782" x="22.1621" y="22.3926" width="8.18647" height="4.88471" filterUnits="userSpaceOnUse" color-interpolation-filters="sRGB">
<feFlood flood-opacity="0" result="BackgroundImageFix"/>
<feBlend mode="normal" in="SourceGraphic" in2="BackgroundImageFix" result="shape"/>
<feColorMatrix in="SourceAlpha" type="matrix" values="0 0 0 0 0 0 0 0 0 0 0 0 0 0 0 0 0 0 127 0" result="hardAlpha"/>
<feOffset dx="0.385686" dy="0.385686"/>
<feGaussianBlur stdDeviation="0.578529"/>
<feComposite in2="hardAlpha" operator="arithmetic" k2="-1" k3="1"/>
<feColorMatrix type="matrix" values="0 0 0 0 0.862745 0 0 0 0 0.658824 0 0 0 0 0.54902 0 0 0 1 0"/>
<feBlend mode="normal" in2="shape" result="effect1_innerShadow_110_1782"/>
</filter>
<filter id="filter9_f_110_1782" x="22.7331" y="22.3737" width="7.46163" height="3.86886" filterUnits="userSpaceOnUse" color-interpolation-filters="sRGB">
<feFlood flood-opacity="0" result="BackgroundImageFix"/>
<feBlend mode="normal" in="SourceGraphic" in2="BackgroundImageFix" result="shape"/>
<feGaussianBlur stdDeviation="0.482107" result="effect1_foregroundBlur_110_1782"/>
</filter>
<filter id="filter10_f_110_1782" x="20.3131" y="12.0387" width="3.75655" height="8.09737" filterUnits="userSpaceOnUse" color-interpolation-filters="sRGB">
<feFlood flood-opacity="0" result="BackgroundImageFix"/>
<feBlend mode="normal" in="SourceGraphic" in2="BackgroundImageFix" result="shape"/>
<feGaussianBlur stdDeviation="0.482107" result="effect1_foregroundBlur_110_1782"/>
</filter>
<linearGradient id="paint0_linear_110_1782" x1="24.424" y1="19.7302" x2="15.6643" y2="36.4466" gradientUnits="userSpaceOnUse">
<stop stop-color="#FFDDBE"/>
<stop offset="1" stop-color="#E7AFA8"/>
</linearGradient>
<radialGradient id="paint1_radial_110_1782" cx="0" cy="0" r="1" gradientUnits="userSpaceOnUse" gradientTransform="translate(23.211 13.1432) rotate(138.814) scale(2.85876 2.23051)">
<stop stop-color="#FFE6C7"/>
<stop offset="1" stop-color="#FFE6C7" stop-opacity="0"/>
</radialGradient>
<radialGradient id="paint2_radial_110_1782" cx="0" cy="0" r="1" gradientUnits="userSpaceOnUse" gradientTransform="translate(17.2244 22.7699) rotate(133.564) scale(5.71757 4.1419)">
<stop stop-color="#F2C0A5"/>
<stop offset="1" stop-color="#F2C0A5" stop-opacity="0"/>
</radialGradient>
<radialGradient id="paint3_radial_110_1782" cx="0" cy="0" r="1" gradientUnits="userSpaceOnUse" gradientTransform="translate(24.5883 23.4567) rotate(135.794) scale(8.24535 5.08305)">
<stop stop-color="#DDA895"/>
<stop offset="1" stop-color="#DDA895" stop-opacity="0"/>
</radialGradient>
<radialGradient id="paint4_radial_110_1782" cx="0" cy="0" r="1" gradientUnits="userSpaceOnUse" gradientTransform="translate(17.3228 36.6549) rotate(-62.612) scale(11.3716 20.2187)">
<stop stop-color="#C08494"/>
<stop offset="1" stop-color="#C08494" stop-opacity="0"/>
</radialGradient>
<radialGradient id="paint5_radial_110_1782" cx="0" cy="0" r="1" gradientUnits="userSpaceOnUse" gradientTransform="translate(24.8151 26.526) rotate(180) scale(11.9825 18.4416)">
<stop offset="0.864" stop-color="#EDB29B" stop-opacity="0"/>
<stop offset="1" stop-color="#EDB29B"/>
</radialGradient>
<radialGradient id="paint6_radial_110_1782" cx="0" cy="0" r="1" gradientUnits="userSpaceOnUse" gradientTransform="translate(23.3742 19.208) rotate(38.8999) scale(1.20508 1.587)">
<stop stop-color="#FFDBBA"/>
<stop offset="1" stop-color="#FFDBBA" stop-opacity="0"/>
</radialGradient>
<linearGradient id="paint7_linear_110_1782" x1="20.1537" y1="34.4372" x2="20.1537" y2="31.786" gradientUnits="userSpaceOnUse">
<stop stop-color="#B57895"/>
<stop offset="1" stop-color="#B57895" stop-opacity="0"/>
</linearGradient>
<linearGradient id="paint8_linear_110_1782" x1="24.1696" y1="21.406" x2="24.1696" y2="33.2604" gradientUnits="userSpaceOnUse">
<stop stop-color="#B5755F"/>
<stop offset="1" stop-color="#B3748D"/>
</linearGradient>
<linearGradient id="paint9_linear_110_1782" x1="29.2305" y1="21.1236" x2="22.9476" y2="21.1236" gradientUnits="userSpaceOnUse">
<stop stop-color="#FFD8BA"/>
<stop offset="1" stop-color="#ECB9A3"/>
</linearGradient>
<radialGradient id="paint10_radial_110_1782" cx="0" cy="0" r="1" gradientUnits="userSpaceOnUse" gradientTransform="translate(22.889 22.4727) scale(5.11109 2.05005)">
<stop stop-color="#DFA995"/>
<stop offset="1" stop-color="#DFA995" stop-opacity="0"/>
</radialGradient>
<radialGradient id="paint11_radial_110_1782" cx="0" cy="0" r="1" gradientUnits="userSpaceOnUse" gradientTransform="translate(23.3889 23.113) rotate(-142.633) scale(1.79043 1.19846)">
<stop stop-color="#CA8C6F"/>
<stop offset="1" stop-color="#CA8C6F" stop-opacity="0"/>
</radialGradient>
<linearGradient id="paint12_linear_110_1782" x1="28.239" y1="20.5119" x2="23.1372" y2="20.5119" gradientUnits="userSpaceOnUse">
<stop stop-color="#FFE7CA"/>
<stop offset="1" stop-color="#FFE7CA" stop-opacity="0"/>
</linearGradient>
<linearGradient id="paint13_linear_110_1782" x1="28.3995" y1="31.3105" x2="22.1629" y2="31.3105" gradientUnits="userSpaceOnUse">
<stop stop-color="#FECEB7"/>
<stop offset="1" stop-color="#DAA59E"/>
</linearGradient>
<radialGradient id="paint14_radial_110_1782" cx="0" cy="0" r="1" gradientUnits="userSpaceOnUse" gradientTransform="translate(24.1315 33.4943) scale(6.33117 1.20031)">
<stop stop-color="#BF8196"/>
<stop offset="1" stop-color="#BF8196" stop-opacity="0"/>
</radialGradient>
<radialGradient id="paint15_radial_110_1782" cx="0" cy="0" r="1" gradientUnits="userSpaceOnUse" gradientTransform="translate(23.8075 29.8927) scale(5.19109 1.16715)">
<stop stop-color="#B57767"/>
<stop offset="1" stop-color="#B57767" stop-opacity="0"/>
</radialGradient>
<linearGradient id="paint16_linear_110_1782" x1="28.2708" y1="30.7372" x2="23.8053" y2="30.7372" gradientUnits="userSpaceOnUse">
<stop stop-color="#FFD2C1"/>
<stop offset="1" stop-color="#FFD2C1" stop-opacity="0"/>
</linearGradient>
<linearGradient id="paint17_linear_110_1782" x1="29.3115" y1="28.1235" x2="22.1617" y2="28.1235" gradientUnits="userSpaceOnUse">
<stop stop-color="#FFDDC1"/>
<stop offset="1" stop-color="#E5B1A3"/>
</linearGradient>
<radialGradient id="paint18_radial_110_1782" cx="0" cy="0" r="1" gradientUnits="userSpaceOnUse" gradientTransform="translate(23.7492 30.4237) scale(7.1096 2.52914)">
<stop offset="0.14" stop-color="#CA8E96"/>
<stop offset="1" stop-color="#CA8E96" stop-opacity="0"/>
</radialGradient>
<radialGradient id="paint19_radial_110_1782" cx="0" cy="0" r="1" gradientUnits="userSpaceOnUse" gradientTransform="translate(24.3825 26.2251) scale(3.66655 1.4884)">
<stop stop-color="#BB7E6C"/>
<stop offset="1" stop-color="#BB7E6C" stop-opacity="0"/>
</radialGradient>
<linearGradient id="paint20_linear_110_1782" x1="28.9612" y1="27.7519" x2="23.3696" y2="27.7519" gradientUnits="userSpaceOnUse">
<stop stop-color="#FFE2C9"/>
<stop offset="1" stop-color="#FFE2C9" stop-opacity="0"/>
</linearGradient>
<linearGradient id="paint21_linear_110_1782" x1="29.9629" y1="24.6419" x2="22.162" y2="24.6419" gradientUnits="userSpaceOnUse">
<stop stop-color="#FFDFBF"/>
<stop offset="1" stop-color="#E2AE9C"/>
</linearGradient>
<radialGradient id="paint22_radial_110_1782" cx="0" cy="0" r="1" gradientUnits="userSpaceOnUse" gradientTransform="translate(24.1429 26.892) scale(6.24329 2.89793)">
<stop stop-color="#D39797"/>
<stop offset="1" stop-color="#D39797" stop-opacity="0"/>
</radialGradient>
<linearGradient id="paint23_linear_110_1782" x1="28.9426" y1="23.8701" x2="22.9791" y2="23.8701" gradientUnits="userSpaceOnUse">
<stop stop-color="#FFE8CA"/>
<stop offset="1" stop-color="#FFE8CA" stop-opacity="0"/>
</linearGradient>
<radialGradient id="paint24_radial_110_1782" cx="0" cy="0" r="1" gradientUnits="userSpaceOnUse" gradientTransform="translate(18.7339 15.1859) rotate(90) scale(4.88197 1.92676)">
<stop stop-color="#E0A892"/>
<stop offset="1" stop-color="#E0A892" stop-opacity="0"/>
</radialGradient>
<linearGradient id="paint25_linear_110_1782" x1="23.0106" y1="14.6945" x2="21.0398" y2="14.6945" gradientUnits="userSpaceOnUse">
<stop stop-color="#FFE7CA"/>
<stop offset="1" stop-color="#FFE7CA" stop-opacity="0"/>
</linearGradient>
</defs>
</svg>
