<svg width="24" height="25" viewBox="0 0 24 25" fill="none" xmlns="http://www.w3.org/2000/svg">
<path d="M8.40039 11.2998C8.40039 10.6633 8.65325 10.0528 9.10333 9.60275C9.55342 9.15266 10.1639 8.8998 10.8004 8.8998C11.4369 8.8998 12.0474 9.15266 12.4974 9.60275C12.9475 10.0528 13.2004 10.6633 13.2004 11.2998C13.2004 11.9363 12.9475 12.5468 12.4974 12.9969C12.0474 13.4469 11.4369 13.6998 10.8004 13.6998C10.1639 13.6998 9.55342 13.4469 9.10333 12.9969C8.65325 12.5468 8.40039 11.9363 8.40039 11.2998ZM10.8004 10.0998C10.4821 10.0998 10.1769 10.2262 9.95186 10.4513C9.72682 10.6763 9.60039 10.9815 9.60039 11.2998C9.60039 11.6181 9.72682 11.9233 9.95186 12.1483C10.1769 12.3734 10.4821 12.4998 10.8004 12.4998C11.1187 12.4998 11.4239 12.3734 11.6489 12.1483C11.874 11.9233 12.0004 11.6181 12.0004 11.2998C12.0004 10.9815 11.874 10.6763 11.6489 10.4513C11.4239 10.2262 11.1187 10.0998 10.8004 10.0998ZM4.20039 5.2998C3.723 5.2998 3.26516 5.48945 2.9276 5.82701C2.59003 6.16458 2.40039 6.62241 2.40039 7.0998V15.4998C2.40039 15.9772 2.59003 16.435 2.9276 16.7726C3.26516 17.1102 3.723 17.2998 4.20039 17.2998H17.4004C17.8778 17.2998 18.3356 17.1102 18.6732 16.7726C19.0107 16.435 19.2004 15.9772 19.2004 15.4998V7.0998C19.2004 6.62241 19.0107 6.16458 18.6732 5.82701C18.3356 5.48945 17.8778 5.2998 17.4004 5.2998H4.20039ZM3.60039 7.0998C3.60039 6.94067 3.6636 6.78806 3.77613 6.67554C3.88865 6.56302 4.04126 6.4998 4.20039 6.4998H6.00039V7.6998C6.00039 8.01806 5.87396 8.32329 5.64892 8.54833C5.42388 8.77338 5.11865 8.8998 4.80039 8.8998H3.60039V7.0998ZM3.60039 10.0998H4.80039C5.43691 10.0998 6.04736 9.84695 6.49745 9.39686C6.94753 8.94677 7.20039 8.33632 7.20039 7.6998V6.4998H14.4004V7.6998C14.4004 8.33632 14.6532 8.94677 15.1033 9.39686C15.5534 9.84695 16.1639 10.0998 16.8004 10.0998H18.0004V12.4998H16.8004C16.1639 12.4998 15.5534 12.7527 15.1033 13.2027C14.6532 13.6528 14.4004 14.2633 14.4004 14.8998V16.0998H7.20039V14.8998C7.20039 14.2633 6.94753 13.6528 6.49745 13.2027C6.04736 12.7527 5.43691 12.4998 4.80039 12.4998H3.60039V10.0998ZM15.6004 6.4998H17.4004C17.5595 6.4998 17.7121 6.56302 17.8247 6.67554C17.9372 6.78806 18.0004 6.94067 18.0004 7.0998V8.8998H16.8004C16.4821 8.8998 16.1769 8.77338 15.9519 8.54833C15.7268 8.32329 15.6004 8.01806 15.6004 7.6998V6.4998ZM18.0004 13.6998V15.4998C18.0004 15.6589 17.9372 15.8115 17.8247 15.9241C17.7121 16.0366 17.5595 16.0998 17.4004 16.0998H15.6004V14.8998C15.6004 14.5815 15.7268 14.2763 15.9519 14.0513C16.1769 13.8262 16.4821 13.6998 16.8004 13.6998H18.0004ZM6.00039 16.0998H4.20039C4.04126 16.0998 3.88865 16.0366 3.77613 15.9241C3.6636 15.8115 3.60039 15.6589 3.60039 15.4998V13.6998H4.80039C5.11865 13.6998 5.42388 13.8262 5.64892 14.0513C5.87396 14.2763 6.00039 14.5815 6.00039 14.8998V16.0998ZM20.4004 15.4998C20.4004 16.2955 20.0843 17.0585 19.5217 17.6211C18.9591 18.1837 18.196 18.4998 17.4004 18.4998H4.90239C5.02652 18.8509 5.25649 19.1548 5.5606 19.3698C5.86471 19.5847 6.228 19.7 6.60039 19.6998H17.4004C18.5143 19.6998 19.5826 19.2573 20.3702 18.4697C21.1579 17.682 21.6004 16.6137 21.6004 15.4998V9.4998C21.6006 9.12741 21.4853 8.76413 21.2704 8.46002C21.0554 8.1559 20.7515 7.92594 20.4004 7.8018V15.4998Z" fill="#79827C"/>
</svg>
