<svg width="20" height="20" viewBox="0 0 20 20" fill="none" xmlns="http://www.w3.org/2000/svg">
<path d="M2.10835 12.3084C1.93085 13.4701 2.72335 14.2759 3.69335 14.6776C7.41251 16.2192 12.5875 16.2192 16.3067 14.6776C17.2767 14.2759 18.0692 13.4692 17.8917 12.3084C17.7833 11.5942 17.2442 11.0001 16.845 10.4192C16.3225 9.64925 16.2708 8.81008 16.27 7.91675C16.2708 4.46508 13.4642 1.66675 10 1.66675C6.53585 1.66675 3.72918 4.46508 3.72918 7.91675C3.72918 8.81008 3.67751 9.65008 3.15418 10.4192C2.75585 11.0001 2.21751 11.5942 2.10835 12.3084Z" stroke="black" stroke-width="0.9375" stroke-linecap="round" stroke-linejoin="round"/>
<path d="M6.66669 15.8335C7.04835 17.271 8.39669 18.3335 10 18.3335C11.6042 18.3335 12.9509 17.271 13.3334 15.8335" stroke="black" stroke-width="0.9375" stroke-linecap="round" stroke-linejoin="round"/>
</svg>
