<svg width="24" height="25" viewBox="0 0 24 25" fill="none" xmlns="http://www.w3.org/2000/svg">
<path d="M20.0313 21.2896C20.4913 21.7496 21.2013 21.0396 20.7413 20.5896L16.9913 16.8296C18.3071 15.3743 19.0343 13.4815 19.0313 11.5196C19.0313 7.12957 15.4613 3.55957 11.0713 3.55957C6.68133 3.55957 3.11133 7.12957 3.11133 11.5196C3.11133 15.9096 6.68133 19.4796 11.0713 19.4796C13.0513 19.4796 14.8813 18.7496 16.2813 17.5396L20.0313 21.2896ZM4.11033 11.5196C4.11033 7.67957 7.24033 4.55957 11.0703 4.55957C14.9103 4.55957 18.0303 7.67957 18.0303 11.5196C18.0303 15.3596 14.9103 18.4796 11.0703 18.4796C7.24033 18.4796 4.11033 15.3596 4.11033 11.5196Z" fill="#16291E"/>
</svg>
