<svg width="40" height="32" viewBox="0 0 40 32" fill="none" xmlns="http://www.w3.org/2000/svg">
<rect width="40" height="32" rx="8" fill="#16291E"/>
<path d="M27.1976 8.17496C27.0248 8.00346 26.8082 7.8829 26.5714 7.82653C26.3346 7.77015 26.0869 7.78014 25.8554 7.8554L12.4981 12.3109C12.2504 12.3894 12.0315 12.5395 11.869 12.7424C11.7066 12.9452 11.6079 13.1916 11.5854 13.4505C11.563 13.7094 11.6177 13.9692 11.7428 14.197C11.8678 14.4247 12.0576 14.6104 12.2881 14.7304L17.8301 17.4694L20.5691 23.0296C20.6792 23.2473 20.8477 23.43 21.0557 23.5574C21.2637 23.6847 21.503 23.7518 21.7469 23.7509H21.8382C22.0994 23.7317 22.3488 23.6343 22.5539 23.4715C22.7591 23.3087 22.9105 23.0879 22.9886 22.8379L27.508 9.51708C27.5887 9.28694 27.6024 9.03861 27.5474 8.801C27.4924 8.5634 27.3711 8.34629 27.1976 8.17496ZM13.0642 13.5708L24.7233 9.68142L18.2501 16.1547L13.0642 13.5708ZM21.8108 22.3083L19.2179 17.1225L25.6911 10.6492L21.8108 22.3083Z" fill="white"/>
</svg>
