<svg width="24" height="25" viewBox="0 0 24 25" fill="none" xmlns="http://www.w3.org/2000/svg">
<path fill-rule="evenodd" clip-rule="evenodd" d="M16.3939 2.52089L16.4599 2.53889C17.5599 2.83389 18.4309 3.06689 19.1159 3.31489C19.8169 3.56789 20.3889 3.85689 20.8599 4.29789C21.5454 4.94041 22.0249 5.7718 22.2379 6.68689C22.3849 7.31489 22.3499 7.95489 22.2179 8.68789C22.0909 9.40589 21.8579 10.2769 21.5629 11.3759L21.0269 13.3749C20.7329 14.4739 20.4989 15.3449 20.2519 16.0309C19.9979 16.7309 19.7089 17.3029 19.2679 17.7739C18.6463 18.4376 17.8474 18.9089 16.9659 19.1319C16.7076 19.724 16.3313 20.2572 15.8599 20.6989C15.3889 21.1399 14.8169 21.4289 14.1159 21.6829C13.4309 21.9309 12.5599 22.1639 11.4609 22.4589L11.3939 22.4769C10.2939 22.7709 9.42389 23.0039 8.70589 23.1329C7.97289 23.2639 7.33289 23.2989 6.70389 23.1529C5.78892 22.9392 4.95788 22.459 4.31589 21.7729C3.87589 21.3029 3.58589 20.7309 3.33189 20.0299C3.08489 19.3449 2.85189 18.4739 2.55689 17.3739L2.02089 15.3759C1.72689 14.2759 1.49289 13.4059 1.36489 12.6879C1.23389 11.9549 1.19889 11.3149 1.34489 10.6859C1.55858 9.77092 2.03883 8.93988 2.72489 8.29789C3.19489 7.85789 3.76689 7.56789 4.46789 7.31389C5.15289 7.06689 6.02389 6.83389 7.12289 6.53889L7.15689 6.52889L7.90789 6.32889C8.29989 4.92989 8.64389 3.94089 9.31589 3.22389C9.95801 2.5382 10.789 2.0583 11.7039 1.84489C12.3329 1.69889 12.9719 1.73389 13.7059 1.86489C14.4229 1.99289 15.2939 2.22689 16.3939 2.52089ZM7.45489 8.00289C6.36189 8.29589 5.57889 8.50789 4.97689 8.72489C4.36689 8.94489 4.00989 9.14889 3.74989 9.39289C3.28054 9.8322 2.95202 10.4008 2.80589 11.0269C2.72589 11.3749 2.72689 11.7869 2.84189 12.4239C2.95689 13.0709 3.17389 13.8809 3.47889 15.0209L3.99689 16.9529C4.30189 18.0929 4.51989 18.9029 4.74289 19.5199C4.96289 20.1299 5.16689 20.4879 5.41089 20.7479C5.8502 21.2172 6.41884 21.5458 7.04489 21.6919C7.39189 21.7719 7.80489 21.7699 8.44189 21.6559C9.08889 21.5409 9.89889 21.3239 11.0389 21.0189C12.1789 20.7129 12.9889 20.4959 13.6069 20.2719C14.2159 20.0519 14.5739 19.8479 14.8339 19.6049C14.9719 19.4749 15.0972 19.3352 15.2099 19.1859C15.0244 19.1594 14.8396 19.1277 14.6559 19.0909C13.9839 18.9569 13.1759 18.7409 12.1809 18.4739L12.1229 18.4589C11.0239 18.1639 10.1529 17.9309 9.46789 17.6829C8.76689 17.4299 8.19489 17.1409 7.72389 16.6999C7.03803 16.0575 6.55812 15.2261 6.34489 14.3109C6.19889 13.6829 6.23389 13.0429 6.36489 12.3099C6.49289 11.5919 6.72689 10.7209 7.02089 9.62189L7.45489 8.00289ZM13.4419 3.34189C12.8039 3.22689 12.3919 3.22489 12.0449 3.30589C11.4188 3.45202 10.8502 3.78054 10.4109 4.24989C9.97489 4.71489 9.70589 5.43489 9.23989 7.14289L8.99689 8.04489L8.47889 9.97689C8.17389 11.1169 7.95689 11.9269 7.84189 12.5739C7.72689 13.2109 7.72489 13.6239 7.80589 13.9709C7.95202 14.5969 8.28054 15.1656 8.74989 15.6049C9.00989 15.8489 9.36789 16.0519 9.97689 16.2729C10.5949 16.4959 11.4049 16.7129 12.5449 17.0189C13.5699 17.2939 14.3299 17.4969 14.9479 17.6189C15.5629 17.7419 15.9809 17.7719 16.3229 17.7299C16.3976 17.7199 16.4696 17.7072 16.5389 17.6919C17.1649 17.5458 17.7336 17.2172 18.1729 16.7479C18.4169 16.4879 18.6209 16.1299 18.8409 15.5209C19.0639 14.9029 19.2809 14.0929 19.5869 12.9529L20.1049 11.0209C20.4099 9.88089 20.6269 9.07089 20.7419 8.42389C20.8559 7.78689 20.8589 7.37389 20.7779 7.02689C20.6318 6.40084 20.3032 5.8322 19.8339 5.39289C19.5739 5.14889 19.2159 4.94589 18.6069 4.72489C17.9879 4.50189 17.1789 4.28489 16.0389 3.97889C14.8989 3.67389 14.0889 3.45689 13.4419 3.34189ZM11.0519 10.3059C11.0774 10.2107 11.1214 10.1215 11.1814 10.0434C11.2414 9.96527 11.3162 9.89972 11.4016 9.8505C11.4869 9.80128 11.5811 9.76936 11.6788 9.75656C11.7765 9.74376 11.8757 9.75033 11.9709 9.77589L16.8009 11.0699C16.9877 11.1261 17.1453 11.2528 17.2402 11.4232C17.3351 11.5936 17.3599 11.7943 17.3092 11.9827C17.2586 12.1711 17.1366 12.3323 16.9691 12.4323C16.8016 12.5322 16.6017 12.5629 16.4119 12.5179L11.5819 11.2239C11.3899 11.1723 11.2263 11.0467 11.1269 10.8746C11.0276 10.7024 11.0006 10.4979 11.0519 10.3059ZM10.2749 13.2039C10.3004 13.1086 10.3445 13.0193 10.4045 12.9411C10.4646 12.8629 10.5395 12.7973 10.625 12.7481C10.7104 12.6988 10.8047 12.667 10.9025 12.6542C11.0003 12.6415 11.0997 12.6482 11.1949 12.6739L14.0919 13.4499C14.284 13.5013 14.4479 13.627 14.5474 13.7993C14.6469 13.9715 14.6738 14.1762 14.6224 14.3684C14.5709 14.5605 14.4453 14.7244 14.273 14.8239C14.1008 14.9234 13.896 14.9503 13.7039 14.8989L10.8059 14.1219C10.6139 14.0703 10.4503 13.9447 10.3509 13.7726C10.2516 13.6004 10.2246 13.3959 10.2759 13.2039" fill="#79827C"/>
</svg>
